<svg height="48pt" viewBox="0 0 274 343" xmlns="http://www.w3.org/2000/svg" fill-rule="evenodd" clip-rule="evenodd" stroke-linejoin="round" stroke-miterlimit="1.414"><g fill-rule="nonzero"><path d="M236.773 170.944l-3.644-2.547a6.115 6.115 0 0 0-8.516 1.512l-6.937 9.933 13.676 9.551 6.933-9.934a6.114 6.114 0 0 0-1.512-8.515zM50.676 165.479a6.117 6.117 0 0 0-8.516-1.516l-3.644 2.547a6.112 6.112 0 0 0-1.512 8.516l6.934 9.933 13.675-9.55-6.937-9.93z" fill="#f6c358"/><path d="M117.27 205.959L0 248.788v-33.653l117.27-90.754v81.578z" fill="#3ea69b"/><path d="M0 215.135l117.27-90.754v21.543L0 224.315v-9.18z" fill="#e56353"/><path d="M157.23 205.709l113.563 51.868 2.633-33.547-109.817-99.649-6.379 81.328z" fill="#3ea69b"/><path d="M273.426 224.03l-109.817-99.649-1.683 21.477 110.781 87.32.719-9.148z" fill="#e56353"/><path d="M119.633 275.717l-54.555 28.551v37.73l71.379-25.492 75.461 25.492v-37.73l-58.637-28.551h-33.648z" fill="#44c4a1"/><path d="M65.078 332.569l54.231-22.18v12.242l-54.231 19.367v-9.429zM157.23 323.526l54.688 18.472v-9.234l-51.953-20.41-2.735 11.172z" fill="#e56353"/><path d="M175.668 52.288L159.57 318.905c-.558 9.215-10.078 16.34-21.297 16.34-11.214 0-20.734-7.125-21.293-16.34L101.52 62.416C99.555 29.795 117.695.666 142.242.666c20.184 0 35.086 24.137 33.426 51.622z" fill="#3ea69b"/><path d="M101.52 62.416C99.555 29.795 117.695.666 142.242.666c20.184 0 37.676 23.879 33.426 61.75" fill="#e56353"/></g></svg>