<svg height="48pt" viewBox="0 0 342 185" xmlns="http://www.w3.org/2000/svg" fill-rule="evenodd" clip-rule="evenodd" stroke-linejoin="round" stroke-miterlimit="1.414"><g fill-rule="nonzero"><path fill="#64798a" d="M286.516 153.959h9.48v25.281h-9.48zM229.648 153.959h9.484v25.281h-9.484z"/><path d="M329.246 119.307l-.297-.149-55.222-47.476a57.902 57.902 0 0 0-31.227-9.141H12.641V86.33h113.222l44.887 49.532a75.725 75.725 0 0 0 56.109 24.875h92.606c12.078 0 21.867-9.793 21.867-21.871a21.87 21.87 0 0 0-12.086-19.559z" fill="#2f4859"/><path d="M247.977 79.002c-5.418-2.84-11.461 2.563-9.239 8.266l7.7 19.765a14.41 14.41 0 0 0 13.425 9.176h59.153l-71.039-37.207zM178.27 86.326h39.363v25.309H178.27z" fill="#d5d6db"/><path d="M217.625 111.639V86.33h-39.367l39.367 25.309z" fill="#fff"/><path d="M247.977 79.002c-5.418-2.84-11.461 2.563-9.239 8.266l80.278 28.941-71.039-37.207z" fill="#ebf0f3"/><path fill="#2f4859" d="M43.691 7.323h288.664v6.324H43.691z"/><path fill="#2f4859" d="M187.559.428h8.492v20.148h-8.492z"/><path d="M205.805 37.033h-28.192a6.449 6.449 0 0 0-6.449 6.45v19.062h41.086V43.483a6.448 6.448 0 0 0-6.445-6.45z" fill="#64798a"/><path d="M197.559 20.178h-11.7a5.878 5.878 0 0 0-5.879 5.879v10.976h23.458V26.057a5.88 5.88 0 0 0-5.879-5.879z" fill="#3a556a"/><path d="M333.93 183.998H180.645v-17.382h9.484v7.902h134.32v-7.902h9.481v17.382zM0 31.561v67.426h12.641l12.644-23.704-15.277-43.722H0z" fill="#64798a"/></g></svg>