<svg height="48pt" viewBox="0 0 342 226" xmlns="http://www.w3.org/2000/svg" fill-rule="evenodd" clip-rule="evenodd" stroke-linejoin="round" stroke-miterlimit="1.414"><clipPath id="a"><path d="M0 0h342v226H0z"/></clipPath><g clip-path="url(#a)" fill-rule="nonzero"><path d="M303.652 87.778h-28.218C262.77 35.11 212.086.071 154.895.071 93.379.071 46 43.267 39.684 102.677 23.621 105.763.059 125.2.059 152.985v33.098h320.05v-34.422h21.184V122.45c0-20.68-16.965-35.051-37.641-34.672z" fill="#44c4a1"/><path fill="#3ea69b" d="M.066 150.809h340.789v35.285H.066z"/><path d="M66.191 97.602c0-34.527 39.688-77.011 88.649-77.011s88.648 42.484 88.648 77.011H66.191z" fill="#d5d6db"/><path d="M243.488 97.602c0-34.527-39.687-77.011-88.648-77.011v77.011h88.648z" fill="#ebf0f3"/><path d="M123.219 186.067c0 21.5-17.43 38.934-38.934 38.934-21.5 0-38.933-17.434-38.933-38.934 0-21.504 17.433-38.933 38.933-38.933 21.504 0 38.934 17.429 38.934 38.933z" fill="#2f4859"/><path d="M109.582 186.067c0 13.969-11.324 25.297-25.297 25.297-13.969 0-25.297-11.328-25.297-25.297 0-13.972 11.328-25.297 25.297-25.297 13.973 0 25.297 11.325 25.297 25.297z" fill="#d5d6db"/><path d="M95.199 186.067c0 6.028-4.887 10.914-10.914 10.914s-10.914-4.886-10.914-10.914c0-6.027 4.887-10.914 10.914-10.914s10.914 4.887 10.914 10.914z" fill="#3a556a"/><path fill="#64798a" d="M154.855 103.567h36.188v12.355h-36.188z"/><path fill="#3a556a" d="M154.855 103.544h36.188v4.836h-36.188z"/><path fill="#64798a" d="M66.203 103.567h36.188v12.355H66.203z"/><path fill="#3a556a" d="M66.203 103.544h36.188v4.836H66.203z"/><path d="M321.848 91.243v30.774l19.445.433s1.84-20.383-19.445-31.207z" fill="#d5d6db"/><path d="M.059 150.798h15.273v-33.906C-1.816 133.349.059 150.798.059 150.798z" fill="#e56353"/><path d="M328.723 186.067c0 21.5-17.43 38.934-38.93 38.934-21.504 0-38.934-17.434-38.934-38.934 0-21.504 17.43-38.933 38.934-38.933 21.5 0 38.93 17.429 38.93 38.933z" fill="#2f4859"/><path d="M315.086 186.067c0 13.969-11.324 25.297-25.293 25.297-13.973 0-25.297-11.328-25.297-25.297 0-13.972 11.324-25.297 25.297-25.297 13.969 0 25.293 11.325 25.293 25.297z" fill="#d5d6db"/><path d="M300.703 186.067c0 6.028-4.883 10.914-10.91 10.914s-10.914-4.886-10.914-10.914c0-6.027 4.887-10.914 10.914-10.914s10.91 4.887 10.91 10.914z" fill="#3a556a"/></g></svg>