<?xml version="1.0" encoding="UTF-8" standalone="no"?><!DOCTYPE svg PUBLIC "-//W3C//DTD SVG 1.1//EN" "http://www.w3.org/Graphics/SVG/1.1/DTD/svg11.dtd"><svg width="100%" height="100%" viewBox="0 0 342 295" version="1.1" xmlns="http://www.w3.org/2000/svg" xmlns:xlink="http://www.w3.org/1999/xlink" xml:space="preserve" xmlns:serif="http://www.serif.com/" style="fill-rule:evenodd;clip-rule:evenodd;stroke-linejoin:round;stroke-miterlimit:1.41421;"><g><g><clipPath id="_clip1"><rect x="0" y="0" width="342" height="295"/></clipPath><g clip-path="url(#_clip1)"><path d="M270.867,237.43l29.606,56.57l39.121,0l-26.434,-74.015l26.434,-78.246l-39.121,0l-29.606,60.8l0,34.891Z" style="fill:#2f4859;fill-rule:nonzero;"/><path d="M329.816,294l-23,-56.234l12.696,0l20.082,56.234l-9.778,0Z" style="fill:#d5d6db;fill-rule:nonzero;"/><path d="M320.438,198.442l19.156,-56.703l-9.578,0l-21.161,53.871l11.583,2.832Z" style="fill:#d5d6db;fill-rule:nonzero;"/><path d="M138.023,126.125l-15.574,0l0,-94.59c0,-8.394 -6.824,-15.218 -15.215,-15.218l-17.425,0l0,-15.571l17.425,0c16.977,0 30.789,13.813 30.789,30.789l0,94.59Z" style="fill:#d5d6db;fill-rule:nonzero;"/><path d="M160.102,158.867l-59.727,0l-10.563,-32.742l80.856,0l-10.566,32.742Z" style="fill:#2f4859;fill-rule:nonzero;"/><path d="M170.707,153.77c-94.23,0 -168.723,28.75 -170.626,64.101c-3.003,55.821 76.392,64.098 170.626,64.098c94.234,0 170.625,-28.699 170.625,-64.098c0,-35.402 -76.391,-64.101 -170.625,-64.101Z" style="fill:#3a556a;fill-rule:nonzero;"/><path d="M170.707,153.77c-94.23,0 -166.711,2.332 -170.626,64.101l341.251,0c0,-35.402 -76.391,-64.101 -170.625,-64.101Z" style="fill:#64798a;fill-rule:nonzero;"/><path d="M151.152,213.285c0,13.52 -10.961,24.485 -24.484,24.485c-13.52,0 -24.484,-10.965 -24.484,-24.485c0,-13.523 10.964,-24.484 24.484,-24.484c13.523,0 24.484,10.961 24.484,24.484Z" style="fill:#d5d6db;fill-rule:nonzero;"/><path d="M143.727,213.285c0,9.418 -7.637,17.055 -17.059,17.055c-9.418,0 -17.055,-7.637 -17.055,-17.055c0,-9.421 7.637,-17.058 17.055,-17.058c9.422,0 17.059,7.637 17.059,17.058Z" style="fill:#2d93ba;fill-rule:nonzero;"/><path d="M89.816,213.285c0,13.52 -10.961,24.485 -24.484,24.485c-13.523,0 -24.484,-10.965 -24.484,-24.485c0,-13.523 10.961,-24.484 24.484,-24.484c13.523,0 24.484,10.961 24.484,24.484Z" style="fill:#d5d6db;fill-rule:nonzero;"/><path d="M82.387,213.285c0,9.418 -7.637,17.055 -17.055,17.055c-9.422,0 -17.059,-7.637 -17.059,-17.055c0,-9.421 7.637,-17.058 17.059,-17.058c9.418,0 17.055,7.637 17.055,17.058Z" style="fill:#2d93ba;fill-rule:nonzero;"/><path d="M165.629,141.739l-70.781,0l-5.036,-15.614l80.856,0l-5.039,15.614Z" style="fill:#3a556a;fill-rule:nonzero;"/></g></g></g></svg>