<svg height="48pt" viewBox="0 0 342 295" xmlns="http://www.w3.org/2000/svg" fill-rule="evenodd" clip-rule="evenodd" stroke-linejoin="round" stroke-miterlimit="1.414"><clipPath id="a"><path d="M0 0h342v295H0z"/></clipPath><g clip-path="url(#a)" fill-rule="nonzero"><path d="M270.867 237.43L300.473 294h39.121l-26.434-74.015 26.434-78.246h-39.121l-29.606 60.8v34.891z" fill="#2f4859"/><path d="M329.816 294l-23-56.234h12.696L339.594 294h-9.778zM320.438 198.442l19.156-56.703h-9.578l-21.161 53.871 11.583 2.832zM138.023 126.125h-15.574v-94.59c0-8.394-6.824-15.218-15.215-15.218H89.809V.746h17.425c16.977 0 30.789 13.813 30.789 30.789v94.59z" fill="#d5d6db"/><path d="M160.102 158.867h-59.727l-10.563-32.742h80.856l-10.566 32.742z" fill="#2f4859"/><path d="M170.707 153.77c-94.23 0-168.723 28.75-170.626 64.101-3.003 55.821 76.392 64.098 170.626 64.098 94.234 0 170.625-28.699 170.625-64.098 0-35.402-76.391-64.101-170.625-64.101z" fill="#3a556a"/><path d="M170.707 153.77c-94.23 0-166.711 2.332-170.626 64.101h341.251c0-35.402-76.391-64.101-170.625-64.101z" fill="#64798a"/><path d="M151.152 213.285c0 13.52-10.961 24.485-24.484 24.485-13.52 0-24.484-10.965-24.484-24.485 0-13.523 10.964-24.484 24.484-24.484 13.523 0 24.484 10.961 24.484 24.484z" fill="#d5d6db"/><path d="M143.727 213.285c0 9.418-7.637 17.055-17.059 17.055-9.418 0-17.055-7.637-17.055-17.055 0-9.421 7.637-17.058 17.055-17.058 9.422 0 17.059 7.637 17.059 17.058z" fill="#2d93ba"/><path d="M89.816 213.285c0 13.52-10.961 24.485-24.484 24.485-13.523 0-24.484-10.965-24.484-24.485 0-13.523 10.961-24.484 24.484-24.484 13.523 0 24.484 10.961 24.484 24.484z" fill="#d5d6db"/><path d="M82.387 213.285c0 9.418-7.637 17.055-17.055 17.055-9.422 0-17.059-7.637-17.059-17.055 0-9.421 7.637-17.058 17.059-17.058 9.418 0 17.055 7.637 17.055 17.058z" fill="#2d93ba"/><path d="M165.629 141.739H94.848l-5.036-15.614h80.856l-5.039 15.614z" fill="#3a556a"/></g></svg>