<?xml version="1.0" encoding="UTF-8" standalone="no"?><!DOCTYPE svg PUBLIC "-//W3C//DTD SVG 1.1//EN" "http://www.w3.org/Graphics/SVG/1.1/DTD/svg11.dtd"><svg width="100%" height="100%" viewBox="0 0 274 343" version="1.1" xmlns="http://www.w3.org/2000/svg" xmlns:xlink="http://www.w3.org/1999/xlink" xml:space="preserve" xmlns:serif="http://www.serif.com/" style="fill-rule:evenodd;clip-rule:evenodd;stroke-linejoin:round;stroke-miterlimit:1.41421;"><g><g><path d="M236.773,170.944l-3.644,-2.547c-2.77,-1.934 -6.582,-1.258 -8.516,1.512l-6.937,9.933l13.676,9.551l6.933,-9.934c1.934,-2.769 1.258,-6.582 -1.512,-8.515Z" style="fill:#f6c358;fill-rule:nonzero;"/><path d="M50.676,165.479c-1.934,-2.77 -5.746,-3.449 -8.516,-1.516l-3.644,2.547c-2.77,1.934 -3.45,5.746 -1.512,8.516l6.934,9.933l13.675,-9.55l-6.937,-9.93Z" style="fill:#f6c358;fill-rule:nonzero;"/><path d="M117.27,205.959l-117.27,42.829l0,-33.653l117.27,-90.754l0,81.578Z" style="fill:#3ea69b;fill-rule:nonzero;"/><path d="M0,215.135l117.27,-90.754l0,21.543l-117.27,78.391l0,-9.18Z" style="fill:#e56353;fill-rule:nonzero;"/><path d="M157.23,205.709l113.563,51.868l2.633,-33.547l-109.817,-99.649l-6.379,81.328Z" style="fill:#3ea69b;fill-rule:nonzero;"/><path d="M273.426,224.03l-109.817,-99.649l-1.683,21.477l110.781,87.32l0.719,-9.148Z" style="fill:#e56353;fill-rule:nonzero;"/><path d="M119.633,275.717l-54.555,28.551l0,37.73l71.379,-25.492l75.461,25.492l0,-37.73l-58.637,-28.551l-33.648,0Z" style="fill:#44c4a1;fill-rule:nonzero;"/><path d="M65.078,332.569l54.231,-22.18l0,12.242l-54.231,19.367l0,-9.429Z" style="fill:#e56353;fill-rule:nonzero;"/><path d="M157.23,323.526l54.688,18.472l0,-9.234l-51.953,-20.41l-2.735,11.172Z" style="fill:#e56353;fill-rule:nonzero;"/><path d="M175.668,52.288l-16.098,266.617c-0.558,9.215 -10.078,16.34 -21.297,16.34c-11.214,0 -20.734,-7.125 -21.293,-16.34l-15.46,-256.489c-1.965,-32.621 16.175,-61.75 40.722,-61.75c20.184,0 35.086,24.137 33.426,51.622Z" style="fill:#3ea69b;fill-rule:nonzero;"/><path d="M101.52,62.416c-1.965,-32.621 16.175,-61.75 40.722,-61.75c20.184,0 37.676,23.879 33.426,61.75" style="fill:#e56353;fill-rule:nonzero;"/></g></g></svg>