<?xml version="1.0" encoding="UTF-8" standalone="no"?><!DOCTYPE svg PUBLIC "-//W3C//DTD SVG 1.1//EN" "http://www.w3.org/Graphics/SVG/1.1/DTD/svg11.dtd"><svg width="100%" height="100%" viewBox="0 0 342 185" version="1.1" xmlns="http://www.w3.org/2000/svg" xmlns:xlink="http://www.w3.org/1999/xlink" xml:space="preserve" xmlns:serif="http://www.serif.com/" style="fill-rule:evenodd;clip-rule:evenodd;stroke-linejoin:round;stroke-miterlimit:1.41421;"><g><g><rect x="286.516" y="153.959" width="9.48" height="25.281" style="fill:#64798a;fill-rule:nonzero;"/><rect x="229.648" y="153.959" width="9.484" height="25.281" style="fill:#64798a;fill-rule:nonzero;"/><path d="M329.246,119.307l-0.297,-0.149l-55.222,-47.476c-9.321,-5.969 -20.157,-9.141 -31.227,-9.141l-229.859,0l0,23.789l113.222,0l44.887,49.532c14.355,15.839 34.734,24.875 56.109,24.875l92.606,0c12.078,0 21.867,-9.793 21.867,-21.871c0,-8.282 -4.68,-15.856 -12.086,-19.559Z" style="fill:#2f4859;fill-rule:nonzero;"/><path d="M247.977,79.002c-5.418,-2.84 -11.461,2.563 -9.239,8.266l7.7,19.765c2.156,5.532 7.488,9.176 13.425,9.176l59.153,0l-71.039,-37.207Z" style="fill:#d5d6db;fill-rule:nonzero;"/><rect x="178.27" y="86.326" width="39.363" height="25.309" style="fill:#d5d6db;fill-rule:nonzero;"/><path d="M217.625,111.639l0,-25.309l-39.367,0l39.367,25.309Z" style="fill:#fff;fill-rule:nonzero;"/><path d="M247.977,79.002c-5.418,-2.84 -11.461,2.563 -9.239,8.266l80.278,28.941l-71.039,-37.207Z" style="fill:#ebf0f3;fill-rule:nonzero;"/><rect x="43.691" y="7.323" width="288.664" height="6.324" style="fill:#2f4859;fill-rule:nonzero;"/><rect x="187.559" y="0.428" width="8.492" height="20.148" style="fill:#2f4859;fill-rule:nonzero;"/><path d="M205.805,37.033l-28.192,0c-3.562,0 -6.449,2.887 -6.449,6.45l0,19.062l41.086,0l0,-19.062c0,-3.563 -2.887,-6.45 -6.445,-6.45Z" style="fill:#64798a;fill-rule:nonzero;"/><path d="M197.559,20.178l-11.7,0c-3.25,0 -5.879,2.633 -5.879,5.879l0,10.976l23.458,0l0,-10.976c0,-3.246 -2.633,-5.879 -5.879,-5.879Z" style="fill:#3a556a;fill-rule:nonzero;"/><path d="M333.93,183.998l-153.285,0l0,-17.382l9.484,0l0,7.902l134.32,0l0,-7.902l9.481,0l0,17.382Z" style="fill:#64798a;fill-rule:nonzero;"/><path d="M0,31.561l0,67.426l12.641,0l12.644,-23.704l-15.277,-43.722l-10.008,0Z" style="fill:#64798a;fill-rule:nonzero;"/></g></g></svg>