<?xml version="1.0" encoding="UTF-8" standalone="no"?><!DOCTYPE svg PUBLIC "-//W3C//DTD SVG 1.1//EN" "http://www.w3.org/Graphics/SVG/1.1/DTD/svg11.dtd"><svg width="100%" height="100%" viewBox="0 0 342 226" version="1.1" xmlns="http://www.w3.org/2000/svg" xmlns:xlink="http://www.w3.org/1999/xlink" xml:space="preserve" xmlns:serif="http://www.serif.com/" style="fill-rule:evenodd;clip-rule:evenodd;stroke-linejoin:round;stroke-miterlimit:1.41421;"><g><g><clipPath id="_clip1"><rect x="0" y="0" width="342" height="226"/></clipPath><g clip-path="url(#_clip1)"><path d="M303.652,87.778l-28.218,0c-12.664,-52.668 -63.348,-87.707 -120.539,-87.707c-61.516,0 -108.895,43.196 -115.211,102.606c-16.063,3.086 -39.625,22.523 -39.625,50.308l0,33.098l320.05,0l0,-34.422l21.184,0l0,-29.211c0,-20.68 -16.965,-35.051 -37.641,-34.672Z" style="fill:#44c4a1;fill-rule:nonzero;"/><rect x="0.066" y="150.809" width="340.789" height="35.285" style="fill:#3ea69b;fill-rule:nonzero;"/><path d="M66.191,97.602c0,-34.527 39.688,-77.011 88.649,-77.011c48.961,0 88.648,42.484 88.648,77.011l-177.297,0Z" style="fill:#d5d6db;fill-rule:nonzero;"/><path d="M243.488,97.602c0,-34.527 -39.687,-77.011 -88.648,-77.011l0,77.011l88.648,0Z" style="fill:#ebf0f3;fill-rule:nonzero;"/><path d="M123.219,186.067c0,21.5 -17.43,38.934 -38.934,38.934c-21.5,0 -38.933,-17.434 -38.933,-38.934c0,-21.504 17.433,-38.933 38.933,-38.933c21.504,0 38.934,17.429 38.934,38.933Z" style="fill:#2f4859;fill-rule:nonzero;"/><path d="M109.582,186.067c0,13.969 -11.324,25.297 -25.297,25.297c-13.969,0 -25.297,-11.328 -25.297,-25.297c0,-13.972 11.328,-25.297 25.297,-25.297c13.973,0 25.297,11.325 25.297,25.297Z" style="fill:#d5d6db;fill-rule:nonzero;"/><path d="M95.199,186.067c0,6.028 -4.887,10.914 -10.914,10.914c-6.027,0 -10.914,-4.886 -10.914,-10.914c0,-6.027 4.887,-10.914 10.914,-10.914c6.027,0 10.914,4.887 10.914,10.914Z" style="fill:#3a556a;fill-rule:nonzero;"/><rect x="154.855" y="103.567" width="36.188" height="12.355" style="fill:#64798a;fill-rule:nonzero;"/><rect x="154.855" y="103.544" width="36.188" height="4.836" style="fill:#3a556a;fill-rule:nonzero;"/><rect x="66.203" y="103.567" width="36.188" height="12.355" style="fill:#64798a;fill-rule:nonzero;"/><rect x="66.203" y="103.544" width="36.188" height="4.836" style="fill:#3a556a;fill-rule:nonzero;"/><path d="M321.848,91.243l0,30.774l19.445,0.433c0,0 1.84,-20.383 -19.445,-31.207Z" style="fill:#d5d6db;fill-rule:nonzero;"/><path d="M0.059,150.798l15.273,0l0,-33.906c-17.148,16.457 -15.273,33.906 -15.273,33.906Z" style="fill:#e56353;fill-rule:nonzero;"/><path d="M328.723,186.067c0,21.5 -17.43,38.934 -38.93,38.934c-21.504,0 -38.934,-17.434 -38.934,-38.934c0,-21.504 17.43,-38.933 38.934,-38.933c21.5,0 38.93,17.429 38.93,38.933Z" style="fill:#2f4859;fill-rule:nonzero;"/><path d="M315.086,186.067c0,13.969 -11.324,25.297 -25.293,25.297c-13.973,0 -25.297,-11.328 -25.297,-25.297c0,-13.972 11.324,-25.297 25.297,-25.297c13.969,0 25.293,11.325 25.293,25.297Z" style="fill:#d5d6db;fill-rule:nonzero;"/><path d="M300.703,186.067c0,6.028 -4.883,10.914 -10.91,10.914c-6.027,0 -10.914,-4.886 -10.914,-10.914c0,-6.027 4.887,-10.914 10.914,-10.914c6.027,0 10.91,4.887 10.91,10.914Z" style="fill:#3a556a;fill-rule:nonzero;"/></g></g></g></svg>