<svg height="48pt" viewBox="0 0 342 318" xmlns="http://www.w3.org/2000/svg" fill-rule="evenodd" clip-rule="evenodd" stroke-linejoin="round" stroke-miterlimit="1.414"><g fill-rule="nonzero"><path d="M190.898 14.937h70.703l-70.703 48.379V14.937z" fill="#3ea69b"/><path d="M195.305 67.019s87.8 5.254 87.797 90.812c0 23.371-46.653 54.102-87.797 65.399 0 0 35.836-95.102 0-156.211z" fill="#e56353"/><path d="M192.535.937h-3.273a6.233 6.233 0 0 0-6.235 6.23v227.227h15.739V7.167a6.23 6.23 0 0 0-6.231-6.23z" fill="#64798a"/><path d="M106.609 306.546h189.93l44.793-72.152H114.668S28.668 240.253 0 190.98l77.047 115.57h29.562v-.004z" fill="#3a556a"/><path d="M181.867 306.546h114.672l44.797-72.152H181.867v72.152z" fill="#2f4859"/><path d="M183.027 58.296L16.949 210.152l83.039-5.735 83.039-146.121z" fill="#e56353"/><path fill="#d5d6db" d="M100.789 248.773h41.66v16.324h-41.66zM169.773 248.773h41.66v16.324h-41.66zM238.969 248.773h41.66v16.324h-41.66z"/></g></svg>