<?xml version="1.0" encoding="UTF-8" standalone="no"?><!DOCTYPE svg PUBLIC "-//W3C//DTD SVG 1.1//EN" "http://www.w3.org/Graphics/SVG/1.1/DTD/svg11.dtd"><svg width="100%" height="100%" viewBox="0 0 342 318" version="1.1" xmlns="http://www.w3.org/2000/svg" xmlns:xlink="http://www.w3.org/1999/xlink" xml:space="preserve" xmlns:serif="http://www.serif.com/" style="fill-rule:evenodd;clip-rule:evenodd;stroke-linejoin:round;stroke-miterlimit:1.41421;"><g><g><path d="M190.898,14.937l70.703,0l-70.703,48.379l0,-48.379Z" style="fill:#3ea69b;fill-rule:nonzero;"/><path d="M195.305,67.019c0,0 87.8,5.254 87.797,90.812c0,23.371 -46.653,54.102 -87.797,65.399c0,0 35.836,-95.102 0,-156.211Z" style="fill:#e56353;fill-rule:nonzero;"/><path d="M192.535,0.937l-3.273,0c-3.442,0 -6.235,2.789 -6.235,6.23l0,227.227l15.739,0l0,-227.227c0,-3.441 -2.789,-6.23 -6.231,-6.23Z" style="fill:#64798a;fill-rule:nonzero;"/><path d="M106.609,306.546l189.93,0l44.793,-72.152l-226.664,0c0,0 -86,5.859 -114.668,-43.414l77.047,115.57l29.562,0l0,-0.004Z" style="fill:#3a556a;fill-rule:nonzero;"/><path d="M181.867,306.546l114.672,0l44.797,-72.152l-159.469,0l0,72.152Z" style="fill:#2f4859;fill-rule:nonzero;"/><path d="M183.027,58.296l-166.078,151.856l83.039,-5.735l83.039,-146.121Z" style="fill:#e56353;fill-rule:nonzero;"/><rect x="100.789" y="248.773" width="41.66" height="16.324" style="fill:#d5d6db;fill-rule:nonzero;"/><rect x="169.773" y="248.773" width="41.66" height="16.324" style="fill:#d5d6db;fill-rule:nonzero;"/><rect x="238.969" y="248.773" width="41.66" height="16.324" style="fill:#d5d6db;fill-rule:nonzero;"/></g></g></svg>