<svg height="48pt" viewBox="0 -16 480 480" width="48pt" xmlns="http://www.w3.org/2000/svg"><g fill="#7d8d9c"><path d="m82.179688 94.625 22.625-22.625 99.601562 99.597656-22.628906 22.628906zm0 0"/><path d="m104 375.996094-22.628906-22.625 96.003906-96.003906 22.628906 22.628906zm0 0"/><path d="m298.222656 194.226562-22.625-22.628906 99.597656-99.597656 22.628907 22.625zm0 0"/><path d="m275.996094 276.003906 22.628906-22.625 100 100-22.628906 22.628906zm0 0"/></g><path d="m232 112h16c39.765625 0 72 32.234375 72 72v80c0 39.765625-32.234375 72-72 72h-16c-39.765625 0-72-32.234375-72-72v-80c0-39.765625 32.234375-72 72-72zm0 0" fill="#394d5c"/><path d="m64 8h32c30.929688 0 56 25.070312 56 56v32c0 30.929688-25.070312 56-56 56h-32c-30.929688 0-56-25.070312-56-56v-32c0-30.929688 25.070312-56 56-56zm0 0" fill="#394d5c"/><path d="m64 296h32c30.929688 0 56 25.070312 56 56v32c0 30.929688-25.070312 56-56 56h-32c-30.929688 0-56-25.070312-56-56v-32c0-30.929688 25.070312-56 56-56zm0 0" fill="#394d5c"/><path d="m120 80c0 22.089844-17.910156 40-40 40s-40-17.910156-40-40 17.910156-40 40-40 40 17.910156 40 40zm0 0" fill="#aabece"/><path d="m120 368c0 22.089844-17.910156 40-40 40s-40-17.910156-40-40 17.910156-40 40-40 40 17.910156 40 40zm0 0" fill="#aabece"/><path d="m416 152h-32c-30.929688 0-56-25.070312-56-56v-32c0-30.929688 25.070312-56 56-56h32c30.929688 0 56 25.070312 56 56v32c0 30.929688-25.070312 56-56 56zm0 0" fill="#394d5c"/><path d="m416 440h-32c-30.929688 0-56-25.070312-56-56v-32c0-30.929688 25.070312-56 56-56h32c30.929688 0 56 25.070312 56 56v32c0 30.929688-25.070312 56-56 56zm0 0" fill="#394d5c"/><path d="m440 80c0 22.089844-17.910156 40-40 40s-40-17.910156-40-40 17.910156-40 40-40 40 17.910156 40 40zm0 0" fill="#aabece"/><path d="m440 368c0 22.089844-17.910156 40-40 40s-40-17.910156-40-40 17.910156-40 40-40 40 17.910156 40 40zm0 0" fill="#aabece"/><path d="m224 136h32v16h-32zm0 0" fill="#dd3e46"/><path d="m224 168h32v16h-32zm0 0" fill="#dd3e46"/><path d="m224 200h32v16h-32zm0 0" fill="#dd3e46"/><path d="m264 336c0 13.253906-10.746094 24-24 24s-24-10.746094-24-24 10.746094-24 24-24 24 10.746094 24 24zm0 0" fill="#7fcac9"/><path d="m80 32c-26.507812 0-48 21.492188-48 48s21.492188 48 48 48 48-21.492188 48-48c-.027344-26.5-21.5-47.972656-48-48zm0 80c-17.671875 0-32-14.328125-32-32s14.328125-32 32-32 32 14.328125 32 32-14.328125 32-32 32zm0 0"/><path d="m80 320c-26.507812 0-48 21.492188-48 48s21.492188 48 48 48 48-21.492188 48-48c-.027344-26.5-21.5-47.972656-48-48zm0 80c-17.671875 0-32-14.328125-32-32s14.328125-32 32-32 32 14.328125 32 32-14.328125 32-32 32zm0 0"/><path d="m416 0h-32c-35.328125.0390625-63.960938 28.671875-64 64v32c.011719 5.890625.84375 11.753906 2.472656 17.414062l-16.082031 16.082032c-15.070313-16.246094-36.226563-25.484375-58.390625-25.496094h-16c-22.164062.007812-43.324219 9.246094-58.398438 25.496094l-16.082031-16.082032c1.628907-5.660156 2.464844-11.523437 2.480469-17.414062v-32c-.039062-35.328125-28.671875-63.9609375-64-64h-32c-35.328125.0390625-63.9609375 28.671875-64 64v32c.0390625 35.328125 28.671875 63.960938 64 64h32c11.140625 0 22.085938-2.933594 31.734375-8.503906l24.664063 24.664062c-.253907 2.582032-.398438 5.191406-.398438 7.839844v80c0 2.398438.121094 4.753906.328125 7.105469l-25.089844 25.09375c-9.53125-5.378907-20.292969-8.203125-31.238281-8.199219h-32c-35.328125.039062-63.9609375 28.671875-64 64v32c.0390625 35.328125 28.671875 63.960938 64 64h32c35.328125-.039062 63.960938-28.671875 64-64v-32c-.007812-6.113281-.894531-12.195312-2.632812-18.054688l15.914062-15.914062c9.542969 10.449219 21.691406 18.179688 35.199219 22.402344 2.136719 15.789062 15.617187 27.566406 31.550781 27.566406s29.414062-11.777344 31.554688-27.566406c13.507812-4.222656 25.652343-11.953125 35.199218-22.402344l15.910156 15.914062c-1.757812 5.855469-2.667968 11.9375-2.695312 18.054688v32c.039062 35.328125 28.671875 63.960938 64 64h32c35.328125-.039062 63.960938-28.671875 64-64v-32c-.039062-35.328125-28.671875-63.960938-64-64h-32c-10.933594.003906-21.679688 2.828125-31.199219 8.199219l-25.089843-25.09375c.210937-2.351563.328124-4.722657.328124-7.105469v-80c0-2.648438-.144531-5.257812-.398437-7.839844l24.664063-24.664062c9.636718 5.566406 20.566406 8.496094 31.695312 8.503906h32c35.328125-.039062 63.960938-28.671875 64-64v-32c-.039062-35.328125-28.671875-63.9609375-64-64zm-320 144h-32c-26.5-.027344-47.972656-21.5-48-48v-32c.027344-26.5 21.5-47.972656 48-48h32c26.5.027344 47.972656 21.5 48 48v32c-.027344 26.5-21.5 47.972656-48 48zm48 240c-.027344 26.5-21.5 47.972656-48 48h-32c-26.5-.027344-47.972656-21.5-48-48v-32c.027344-26.5 21.5-47.972656 48-48h32c26.5.027344 47.972656 21.5 48 48zm6.335938-65.648438c-2.835938-4.578124-6.238282-8.78125-10.121094-12.511718l16.144531-16.144532c1.851563 5.371094 4.265625 10.53125 7.199219 15.394532zm6.207031-160.671874-15.902344-15.902344c3.847656-3.773438 7.207031-8.015625 10-12.625l13.191406 13.191406c-2.96875 4.839844-5.410156 9.980469-7.289062 15.335938zm83.457031 194.320312c-8.835938 0-16-7.164062-16-16s7.164062-16 16-16 16 7.164062 16 16-7.164062 16-16 16zm72-88c-.179688 26.917969-17.058594 50.890625-42.335938 60.136719-4.828124-12.15625-16.585937-20.132813-29.664062-20.132813s-24.835938 7.976563-29.664062 20.132813c-25.277344-9.246094-42.15625-33.21875-42.335938-60.136719v-80c.039062-35.328125 28.671875-63.960938 64-64h16c35.328125.039062 63.960938 28.671875 64 64zm72 40h32c26.5.027344 47.972656 21.5 48 48v32c-.027344 26.5-21.5 47.972656-48 48h-32c-26.5-.027344-47.972656-21.5-48-48v-32c.027344-26.5 21.5-47.972656 48-48zm-44.214844 1.839844c-3.882812 3.730468-7.285156 7.933594-10.121094 12.511718l-13.265624-13.261718c2.949218-4.863282 5.375-10.023438 7.242187-15.394532zm-16.328125-148.160156c-1.875-5.355469-4.320312-10.5-7.289062-15.335938l13.191406-13.191406c2.792969 4.609375 6.152344 8.851562 10 12.625zm140.542969-61.679688c-.027344 26.5-21.5 47.972656-48 48h-32c-26.5-.027344-47.972656-21.5-48-48v-32c.027344-26.5 21.5-47.972656 48-48h32c26.5.027344 47.972656 21.5 48 48zm0 0"/><path d="m400 32c-26.507812 0-48 21.492188-48 48s21.492188 48 48 48 48-21.492188 48-48c-.027344-26.5-21.5-47.972656-48-48zm0 80c-17.671875 0-32-14.328125-32-32s14.328125-32 32-32 32 14.328125 32 32-14.328125 32-32 32zm0 0"/><path d="m400 416c26.507812 0 48-21.492188 48-48s-21.492188-48-48-48-48 21.492188-48 48c.027344 26.5 21.5 47.972656 48 48zm0-80c17.671875 0 32 14.328125 32 32s-14.328125 32-32 32-32-14.328125-32-32 14.328125-32 32-32zm0 0"/><path d="m224 136h32v16h-32zm0 0"/><path d="m224 168h32v16h-32zm0 0"/><path d="m224 200h32v16h-32zm0 0"/></svg>