<?xml version="1.0" encoding="UTF-8" standalone="no"?><!DOCTYPE svg PUBLIC "-//W3C//DTD SVG 1.1//EN" "http://www.w3.org/Graphics/SVG/1.1/DTD/svg11.dtd"><svg width="1000px" height="680px" version="1.1" xmlns="http://www.w3.org/2000/svg" xmlns:xlink="http://www.w3.org/1999/xlink" xml:space="preserve" xmlns:serif="http://www.serif.com/" style="fill-rule:evenodd;clip-rule:evenodd;stroke-linejoin:round;stroke-miterlimit:1.41421;"><g><g><path d="M88.04,673.535c-8.533,3.748 -19.211,5.623 -32.034,5.623c-37.338,0 -56.006,-18.375 -56.006,-55.121c0,-34.772 18.989,-52.159 56.967,-52.159c11.589,0 21.949,1.729 31.073,5.179l0,17.758c-9.124,-3.948 -18.988,-5.921 -29.594,-5.921c-25.401,0 -38.101,11.719 -38.101,35.143c0,25.403 11.985,38.105 35.957,38.105c3.55,0 7.594,-0.594 12.133,-1.777l0,-30.778l19.605,0l0,43.948Z" style="fill:#333;fill-rule:nonzero;"/><path d="M149.896,662.142c21.308,0 31.962,-12.308 31.962,-36.921c0,-24.218 -10.654,-36.326 -31.962,-36.326c-21.849,0 -32.773,12.108 -32.773,36.326c0,24.613 10.924,36.921 32.773,36.921m-53.121,-36.478c0,-35.855 17.708,-53.785 53.121,-53.785c34.872,0 52.307,17.93 52.307,53.785c0,35.659 -17.435,53.494 -52.307,53.494c-33.836,0 -51.542,-17.835 -53.121,-53.494" style="fill:#333;fill-rule:nonzero;"/><path d="M264.058,662.142c21.308,0 31.962,-12.308 31.962,-36.921c0,-24.218 -10.654,-36.326 -31.962,-36.326c-21.849,0 -32.773,12.108 -32.773,36.326c0,24.613 10.924,36.921 32.773,36.921m-53.121,-36.478c0,-35.855 17.708,-53.785 53.121,-53.785c34.872,0 52.307,17.93 52.307,53.785c0,35.659 -17.435,53.494 -52.307,53.494c-33.836,0 -51.542,-17.835 -53.121,-53.494" style="fill:#333;fill-rule:nonzero;"/><path d="M370.231,661.402c21.949,0 32.924,-12.923 32.924,-38.768c0,-21.997 -10.975,-32.998 -32.924,-32.998l-21.824,0l0,71.766l21.824,0Zm-41.429,17.016l0,-105.798l41.429,0c35.02,0 52.53,16.674 52.53,50.014c0,37.189 -17.51,55.784 -52.53,55.784l-41.429,0Z" style="fill:#333;fill-rule:nonzero;"/><path d="M439.173,678.417l0,-105.798l45.129,0c20.127,0 30.185,8.458 30.185,25.376c0,13.762 -9.839,23.947 -29.518,30.556l36.324,49.866l-18.05,0l-33.663,-47.573l0,-8.951c20.222,-3.207 30.332,-10.973 30.332,-23.306c0,-9.766 -5.62,-14.649 -16.866,-14.649l-30.186,0l0,94.479l-13.687,0Z" style="fill:#333;fill-rule:nonzero;"/><path d="M577.603,668.058c25.251,0 37.882,-14.278 37.882,-42.836c0,-28.161 -12.631,-42.244 -37.882,-42.244c-25.797,0 -38.695,14.083 -38.695,42.244c0,28.558 12.898,42.836 38.695,42.836m-53.119,-42.394c0,-35.855 17.703,-53.785 53.119,-53.785c34.869,0 52.304,17.93 52.304,53.785c0,35.661 -17.435,53.494 -52.304,53.494c-35.416,0 -53.119,-17.833 -53.119,-53.494" style="fill:#333;fill-rule:nonzero;"/><path d="M685.106,667.318c12.627,0 18.941,-6.408 18.941,-19.233c0,-12.481 -8.46,-18.722 -25.378,-18.722l-5.921,0l0,-8.952c20.222,-2.708 30.334,-10.008 30.334,-21.897c0,-9.864 -5.622,-14.795 -16.866,-14.795l-30.186,0l0,83.599l29.076,0Zm-42.763,11.099l0,-105.798l45.132,0c20.124,0 30.182,8.214 30.182,24.637c0,12.035 -6.558,20.641 -19.676,25.822c14.003,2.616 21.011,10.626 21.011,24.043c0,20.863 -11.026,31.296 -33.071,31.296l-43.578,0Z" style="fill:#333;fill-rule:nonzero;"/><path d="M782.62,668.058c25.256,0 37.882,-14.278 37.882,-42.836c0,-28.161 -12.626,-42.244 -37.882,-42.244c-25.797,0 -38.69,14.083 -38.69,42.244c0,28.558 12.893,42.836 38.69,42.836m-53.119,-42.394c0,-35.855 17.708,-53.785 53.119,-53.785c34.87,0 52.309,17.93 52.309,53.785c0,35.661 -17.439,53.494 -52.309,53.494c-35.411,0 -53.119,-17.833 -53.119,-53.494" style="fill:#333;fill-rule:nonzero;"/><path d="M916.539,572.619l0,11.1l-33.291,0l0,94.698l-13.689,0l0,-94.698l-33.29,0l0,-11.1l80.27,0Z" style="fill:#333;fill-rule:nonzero;"/><path d="M923.057,674.719l0,-12.577c11.095,3.942 23.082,5.917 35.957,5.917c18.199,0 27.297,-6.658 27.297,-19.975c0,-11.343 -6.704,-17.016 -20.124,-17.016l-15.091,0c-22.148,0 -33.218,-9.618 -33.218,-28.857c0,-20.222 14.179,-30.332 42.54,-30.332c12.333,0 23.797,1.481 34.401,4.439l0,12.577c-10.604,-3.944 -22.068,-5.916 -34.401,-5.916c-19.235,0 -28.853,6.412 -28.853,19.232c0,11.35 6.51,17.016 19.531,17.016l15.091,0c22.541,0 33.813,9.619 33.813,28.857c0,20.714 -13.664,31.074 -40.986,31.074c-12.875,0 -24.862,-1.481 -35.957,-4.439" style="fill:#333;fill-rule:nonzero;"/></g><g><path d="M275.266,344.527c53.206,25.541 106.961,52.388 123.6,60.544c13.572,6.662 25.049,16.061 48.821,-4.998c17.428,-15.443 72.42,-65.146 100.509,-90.559l-303.033,0c-17.189,0 0.685,20.891 30.103,35.013" style="fill:#a2133d;fill-rule:nonzero;"/><path d="M368.261,496.118c44.357,-13.847 89.474,-27.115 103.39,-31.326c11.362,-3.435 22.047,-3.706 32.547,-32.496c7.706,-21.114 31.74,-88.403 43.998,-122.783c-49.894,42.605 -197.159,168.373 -210.93,180.133c-11.966,10.212 6.471,14.133 30.995,6.472" style="fill:#e01d5a;fill-rule:nonzero;"/></g><g><path d="M718.682,172.53c-53.208,-25.536 -106.967,-52.39 -123.601,-60.545c-13.575,-6.656 -25.054,-16.058 -48.817,4.995c-17.435,15.45 -72.427,65.15 -100.519,90.563l303.038,0c17.183,0 -0.685,-20.895 -30.101,-35.013" style="fill:#0b8453;fill-rule:nonzero;"/><path d="M625.685,20.938c-44.359,13.851 -89.474,27.111 -103.399,31.326c-11.353,3.433 -22.036,3.71 -32.544,32.496c-7.704,21.116 -31.728,88.403 -43.997,122.783c49.894,-42.609 197.164,-168.368 210.93,-180.133c11.964,-10.212 -6.468,-14.132 -30.99,-6.472" style="fill:#2bb77c;fill-rule:nonzero;"/></g><g><path d="M582.972,480.238c25.536,-53.211 52.385,-106.965 60.545,-123.606c6.656,-13.575 16.058,-25.049 -5.002,-48.817c-15.441,-17.429 -65.147,-72.418 -90.559,-100.513l0,303.039c0,17.184 20.897,-0.686 35.016,-30.103" style="fill:#d06921;fill-rule:nonzero;"/><path d="M734.563,387.242c-13.85,-44.361 -27.116,-89.478 -31.322,-103.398c-3.437,-11.356 -3.714,-22.041 -32.509,-32.545c-21.105,-7.706 -88.39,-31.73 -122.775,-43.998c42.609,49.896 168.369,197.163 180.133,210.933c10.212,11.965 14.135,-6.47 6.473,-30.992" style="fill:#ebb12a;fill-rule:nonzero;"/></g><g><path d="M410.971,36.823c-25.535,53.206 -52.386,106.962 -60.544,123.603c-6.66,13.573 -16.062,25.049 4.998,48.817c15.445,17.429 65.149,72.416 90.563,100.513l0,-303.039c0,-17.186 -20.899,0.682 -35.017,30.106" style="fill:#1494cf;fill-rule:nonzero;"/><path d="M259.381,129.813c13.848,44.363 27.112,89.482 31.322,103.403c3.437,11.353 3.714,22.038 32.505,32.538c21.11,7.71 88.39,31.73 122.779,44c-42.611,-49.891 -168.369,-197.161 -180.131,-210.929c-10.218,-11.968 -14.135,6.466 -6.475,30.988" style="fill:#33c5ef;fill-rule:nonzero;"/></g></g></svg>