<?xml version="1.0" encoding="UTF-8" standalone="no"?><!DOCTYPE svg PUBLIC "-//W3C//DTD SVG 1.1//EN" "http://www.w3.org/Graphics/SVG/1.1/DTD/svg11.dtd"><svg width="1080px" height="1080px" version="1.1" xmlns="http://www.w3.org/2000/svg" xmlns:xlink="http://www.w3.org/1999/xlink" xml:space="preserve" xmlns:serif="http://www.serif.com/" style="fill-rule:evenodd;clip-rule:evenodd;stroke-linejoin:round;stroke-miterlimit:1.41421;"><g><g><path d="M983.428,712.004c-106.417,51.083 -213.929,104.779 -247.208,121.091c-27.146,13.325 -50.1,32.125 -97.646,-9.995c-34.859,-30.888 -144.846,-130.296 -201.025,-181.125l606.087,0c34.379,0 -1.371,41.783 -60.208,70.029" style="fill:#a2133d;fill-rule:nonzero;"/><path d="M797.431,1015.2c-88.716,-27.696 -178.954,-54.233 -206.787,-62.654c-22.725,-6.871 -44.096,-7.413 -65.096,-64.996c-15.413,-42.229 -63.483,-176.813 -88,-245.575c99.792,85.212 394.333,336.758 421.875,360.279c23.933,20.425 -12.942,28.267 -61.992,12.946" style="fill:#e01d5a;fill-rule:nonzero;"/></g><g><path d="M96.563,367.998c106.42,-51.075 213.941,-104.784 247.212,-121.096c27.15,-13.313 50.108,-32.117 97.638,9.991c34.87,30.9 144.858,130.305 201.045,181.134l-606.1,0c-34.366,0 1.371,-41.792 60.205,-70.029" style="fill:#0b8453;fill-rule:nonzero;"/><path d="M282.565,64.801c88.721,27.704 178.954,54.225 206.804,62.654c22.709,6.867 44.075,7.421 65.092,64.996c15.408,42.234 63.458,176.813 87.996,245.575c-99.792,-85.221 -394.342,-336.75 -421.875,-360.279c-23.929,-20.425 12.937,-28.267 61.983,-12.946" style="fill:#2bb77c;fill-rule:nonzero;"/></g><g><path d="M367.994,983.435c-51.075,-106.425 -104.775,-213.937 -121.096,-247.221c-13.312,-27.15 -32.116,-50.1 10.005,-97.637c30.883,-34.859 130.3,-144.842 181.125,-201.034l0,606.1c0,34.371 -41.796,-1.37 -70.034,-60.208" style="fill:#d06921;fill-rule:nonzero;"/><path d="M64.8,797.437c27.7,-88.725 54.233,-178.963 62.646,-206.804c6.875,-22.713 7.429,-44.084 65.021,-65.092c42.212,-15.413 176.787,-63.463 245.558,-88c-85.221,99.796 -336.75,394.342 -360.279,421.883c-20.425,23.929 -28.271,-12.941 -12.946,-61.987" style="fill:#ebb12a;fill-rule:nonzero;"/></g><g><path d="M712.009,96.572c51.071,106.417 104.775,213.933 121.091,247.217c13.321,27.146 32.125,50.1 -9.995,97.637c-30.892,34.859 -130.305,144.838 -181.134,201.034l0,-606.1c0,-34.375 41.8,1.362 70.038,60.212" style="fill:#1494cf;fill-rule:nonzero;"/><path d="M1015.2,282.56c-27.696,88.73 -54.225,178.971 -62.646,206.813c-6.875,22.708 -7.429,44.079 -65.013,65.079c-42.22,15.421 -176.787,63.463 -245.566,88.004c85.225,-99.787 336.75,-394.337 360.275,-421.875c20.437,-23.937 28.271,12.934 12.95,61.979" style="fill:#33c5ef;fill-rule:nonzero;"/></g></g></svg>