<?xml version="1.0" encoding="UTF-8" standalone="no"?>
<!DOCTYPE svg PUBLIC "-//W3C//DTD SVG 1.1//EN" "http://www.w3.org/Graphics/SVG/1.1/DTD/svg11.dtd">
<svg width="100%" height="100%" viewBox="0 0 563 100" version="1.1" xmlns="http://www.w3.org/2000/svg" xmlns:xlink="http://www.w3.org/1999/xlink" xml:space="preserve" xmlns:serif="http://www.serif.com/" style="fill-rule:evenodd;clip-rule:evenodd;stroke-linejoin:round;stroke-miterlimit:2;">
    <g transform="matrix(1,0,0,1,-235.187,-490)">
        <g transform="matrix(1,0,0,1,230.719,-62.7305)">
            <g transform="matrix(0.193402,0,0,0.193402,-50.3552,509.959)">
                <g>
                    <g transform="matrix(2.08326,0,0,2.08326,320.289,607.271)">
                        <path d="M0,-19.965C25.54,-7.705 51.343,5.182 59.33,9.097C65.845,12.295 71.354,16.807 82.765,6.698C91.131,-0.715 117.528,-24.573 131.011,-36.772L-14.45,-36.772C-22.701,-36.772 -14.121,-26.744 0,-19.965" style="fill:rgb(162,19,61);fill-rule:nonzero;"/>
                    </g>
                    <g transform="matrix(2.08326,0,0,2.08326,413.284,538.324)">
                        <path d="M0,85.897C21.292,79.25 42.949,72.881 49.629,70.86C55.083,69.211 60.212,69.081 65.252,55.261C68.951,45.126 80.488,12.826 86.372,-3.677C62.422,16.774 -8.268,77.145 -14.878,82.79C-20.622,87.692 -11.772,89.574 0,85.897" style="fill:rgb(224,29,90);fill-rule:nonzero;"/>
                    </g>
                </g>
                <g>
                    <g transform="matrix(2.08326,0,0,2.08326,763.705,352.091)">
                        <path d="M0,19.964C-25.541,7.706 -51.346,-5.184 -59.331,-9.099C-65.847,-12.294 -71.357,-16.807 -82.764,-6.701C-91.133,0.715 -117.53,24.572 -131.015,36.771L14.449,36.771C22.697,36.771 14.12,26.741 0,19.964" style="fill:rgb(11,132,83);fill-rule:nonzero;"/>
                    </g>
                    <g transform="matrix(2.08326,0,0,2.08326,670.707,421.035)">
                        <path d="M0,-85.897C-21.293,-79.248 -42.949,-72.883 -49.633,-70.86C-55.083,-69.212 -60.211,-69.079 -65.255,-55.261C-68.953,-45.125 -80.485,-12.826 -86.374,3.677C-62.424,-16.776 8.268,-77.143 14.876,-82.79C20.619,-87.692 11.771,-89.574 0,-85.897" style="fill:rgb(43,183,124);fill-rule:nonzero;"/>
                    </g>
                </g>
                <g>
                    <g transform="matrix(2.08326,0,0,2.08326,627.994,475.741)">
                        <path d="M0,108.315C12.258,82.773 25.146,56.97 29.063,48.982C32.258,42.466 36.771,36.958 26.662,25.549C19.25,17.183 -4.61,-9.213 -16.808,-22.699L-16.808,122.765C-16.808,131.014 -6.777,122.436 0,108.315" style="fill:rgb(208,105,33);fill-rule:nonzero;"/>
                    </g>
                    <g transform="matrix(2.08326,0,0,2.08326,779.586,471.409)">
                        <path d="M0,65.755C-6.648,44.461 -13.016,22.804 -15.035,16.122C-16.685,10.671 -16.818,5.542 -30.64,0.5C-40.771,-3.199 -73.069,-14.731 -89.574,-20.62C-69.121,3.331 -8.754,74.022 -3.107,80.632C1.795,86.375 3.678,77.526 0,65.755" style="fill:rgb(235,177,42);fill-rule:nonzero;"/>
                    </g>
                </g>
                <g>
                    <g transform="matrix(2.08326,0,0,2.08326,455.994,483.616)">
                        <path d="M0,-108.312C-12.257,-82.772 -25.146,-56.968 -29.062,-48.98C-32.259,-42.465 -36.772,-36.956 -26.663,-25.547C-19.249,-17.181 4.61,9.214 16.809,22.701L16.809,-122.763C16.809,-131.013 6.777,-122.436 0,-108.312" style="fill:rgb(20,148,207);fill-rule:nonzero;"/>
                    </g>
                    <g transform="matrix(2.08326,0,0,2.08326,304.404,487.949)">
                        <path d="M0,-65.755C6.647,-44.46 13.014,-22.802 15.035,-16.12C16.685,-10.67 16.818,-5.541 30.638,-0.501C40.771,3.2 73.067,14.73 89.574,20.62C69.12,-3.329 8.754,-74.021 3.108,-80.63C-1.797,-86.375 -3.677,-77.526 0,-65.755" style="fill:rgb(51,197,239);fill-rule:nonzero;"/>
                    </g>
                </g>
            </g>
            <g transform="matrix(1.45892,0,0,1.45892,-268.996,-124.254)">
                <g id="Dark-Text--Curves-" serif:id="Dark Text (Curves)">
                    <g>
                        <g transform="matrix(65.8022,0,0,65.8022,270.073,523.144)">
                            <path d="M0.654,-0.69C0.639,-0.69 0.629,-0.682 0.625,-0.667L0.474,-0.218C0.464,-0.186 0.454,-0.155 0.445,-0.123L0.423,-0.123C0.414,-0.155 0.405,-0.185 0.395,-0.217L0.244,-0.667C0.239,-0.682 0.23,-0.69 0.215,-0.69L0.136,-0.69C0.117,-0.69 0.107,-0.679 0.107,-0.661L0.079,0L0.144,0L0.17,-0.635L0.191,-0.635L0.371,-0.094C0.376,-0.079 0.386,-0.072 0.401,-0.072L0.467,-0.072C0.483,-0.072 0.492,-0.079 0.497,-0.094L0.676,-0.635L0.698,-0.635L0.725,0L0.79,0L0.761,-0.661C0.761,-0.679 0.751,-0.69 0.732,-0.69L0.654,-0.69Z" style="fill:rgb(51,51,51);fill-opacity:0.86;fill-rule:nonzero;"/>
                        </g>
                        <g transform="matrix(65.8022,0,0,65.8022,327.255,523.144)">
                            <path d="M0.458,-0.228L0.534,0L0.602,0L0.371,-0.671C0.367,-0.683 0.357,-0.69 0.345,-0.69L0.27,-0.69C0.258,-0.69 0.248,-0.683 0.244,-0.671L0.013,0L0.081,0L0.157,-0.228L0.458,-0.228ZM0.439,-0.285L0.176,-0.285L0.275,-0.582C0.282,-0.601 0.288,-0.62 0.294,-0.638L0.322,-0.638C0.327,-0.62 0.334,-0.601 0.34,-0.582L0.439,-0.285Z" style="fill:rgb(51,51,51);fill-opacity:0.86;fill-rule:nonzero;"/>
                        </g>
                        <g transform="matrix(65.8022,0,0,65.8022,365.486,523.144)">
                            <path d="M0.583,-0.69L0.515,-0.69L0.337,-0.127C0.329,-0.102 0.322,-0.077 0.315,-0.052L0.288,-0.052C0.281,-0.077 0.274,-0.102 0.266,-0.127L0.088,-0.69L0.02,-0.69L0.239,-0.019C0.242,-0.008 0.253,0 0.265,0L0.338,0C0.35,0 0.36,-0.008 0.364,-0.019L0.583,-0.69Z" style="fill:rgb(51,51,51);fill-opacity:0.86;fill-rule:nonzero;"/>
                        </g>
                        <g transform="matrix(65.8022,0,0,65.8022,405.165,523.144)">
                            <path d="M0.5,-0.055L0.22,-0.055C0.177,-0.055 0.153,-0.08 0.153,-0.127L0.153,-0.34L0.461,-0.34L0.461,-0.393L0.153,-0.393L0.153,-0.562C0.153,-0.61 0.177,-0.635 0.22,-0.635L0.5,-0.635L0.504,-0.685C0.41,-0.691 0.307,-0.691 0.209,-0.691C0.136,-0.691 0.087,-0.646 0.087,-0.577L0.087,-0.113C0.087,-0.044 0.135,0.001 0.209,0.001C0.307,0.001 0.41,0.001 0.504,-0.005L0.5,-0.055Z" style="fill:rgb(51,51,51);fill-opacity:0.86;fill-rule:nonzero;"/>
                        </g>
                        <g transform="matrix(65.8022,0,0,65.8022,441.817,523.144)">
                            <path d="M0.564,0L0.494,-0.219C0.479,-0.273 0.447,-0.307 0.412,-0.317L0.412,-0.321C0.502,-0.334 0.539,-0.385 0.539,-0.501C0.539,-0.656 0.479,-0.698 0.324,-0.698C0.216,-0.698 0.166,-0.697 0.093,-0.69L0.093,0L0.158,0L0.158,-0.298C0.198,-0.297 0.255,-0.296 0.329,-0.296C0.377,-0.296 0.408,-0.274 0.428,-0.217L0.494,0L0.564,0ZM0.158,-0.353L0.158,-0.64C0.198,-0.641 0.256,-0.642 0.324,-0.642C0.434,-0.642 0.473,-0.612 0.473,-0.498C0.473,-0.385 0.434,-0.354 0.324,-0.353L0.158,-0.353Z" style="fill:rgb(51,51,51);fill-opacity:0.86;fill-rule:nonzero;"/>
                        </g>
                        <g transform="matrix(65.8022,0,0,65.8022,482.219,523.144)">
                            <rect x="0.093" y="-0.69" width="0.065" height="0.69" style="fill:rgb(51,51,51);fill-opacity:0.86;fill-rule:nonzero;"/>
                        </g>
                        <g transform="matrix(65.8022,0,0,65.8022,498.736,523.144)">
                            <path d="M0.331,-0.702C0.136,-0.702 0.067,-0.608 0.067,-0.345C0.067,-0.082 0.136,0.012 0.331,0.012C0.42,0.012 0.473,0.006 0.529,-0.009L0.521,-0.058C0.466,-0.05 0.415,-0.047 0.331,-0.047C0.185,-0.047 0.135,-0.121 0.135,-0.345C0.135,-0.569 0.185,-0.643 0.331,-0.643C0.41,-0.643 0.448,-0.641 0.507,-0.634L0.515,-0.683C0.46,-0.697 0.416,-0.702 0.331,-0.702Z" style="fill:rgb(51,51,51);fill-opacity:0.86;fill-rule:nonzero;"/>
                        </g>
                        <g transform="matrix(65.8022,0,0,65.8022,536.046,523.144)">
                            <path d="M0.248,-0.333L0.483,0L0.557,0L0.333,-0.319C0.323,-0.333 0.311,-0.346 0.298,-0.358L0.298,-0.361C0.31,-0.372 0.32,-0.382 0.33,-0.397L0.542,-0.69L0.469,-0.69L0.249,-0.387L0.152,-0.387C0.156,-0.413 0.158,-0.438 0.158,-0.467L0.158,-0.69L0.093,-0.69L0.093,0L0.158,0L0.158,-0.255C0.158,-0.28 0.156,-0.306 0.152,-0.333L0.248,-0.333Z" style="fill:rgb(51,51,51);fill-opacity:0.86;fill-rule:nonzero;"/>
                        </g>
                    </g>
                </g>
            </g>
        </g>
    </g>
</svg>
