<?xml version="1.0" encoding="UTF-8" standalone="no"?>
<!DOCTYPE svg PUBLIC "-//W3C//DTD SVG 1.1//EN" "http://www.w3.org/Graphics/SVG/1.1/DTD/svg11.dtd">
<svg width="100%" height="100%" viewBox="0 0 563 100" version="1.1" xmlns="http://www.w3.org/2000/svg" xmlns:xlink="http://www.w3.org/1999/xlink" xml:space="preserve" xmlns:serif="http://www.serif.com/" style="fill-rule:evenodd;clip-rule:evenodd;stroke-linejoin:round;stroke-miterlimit:2;">
    <g transform="matrix(1,0,0,1,-235.187,-490)">
        <g transform="matrix(1,0,0,1,230.719,-62.7305)">
            <g transform="matrix(0.193402,0,0,0.193402,-50.3552,509.959)">
                <g>
                    <g transform="matrix(2.08326,0,0,2.08326,320.289,607.271)">
                        <path d="M0,-19.965C25.54,-7.705 51.343,5.182 59.33,9.097C65.845,12.295 71.354,16.807 82.765,6.698C91.131,-0.715 117.528,-24.573 131.011,-36.772L-14.45,-36.772C-22.701,-36.772 -14.121,-26.744 0,-19.965" style="fill:rgb(162,19,61);fill-rule:nonzero;"/>
                    </g>
                    <g transform="matrix(2.08326,0,0,2.08326,413.284,538.324)">
                        <path d="M0,85.897C21.292,79.25 42.949,72.881 49.629,70.86C55.083,69.211 60.212,69.081 65.252,55.261C68.951,45.126 80.488,12.826 86.372,-3.677C62.422,16.774 -8.268,77.145 -14.878,82.79C-20.622,87.692 -11.772,89.574 0,85.897" style="fill:rgb(224,29,90);fill-rule:nonzero;"/>
                    </g>
                </g>
                <g>
                    <g transform="matrix(2.08326,0,0,2.08326,763.705,352.091)">
                        <path d="M0,19.964C-25.541,7.706 -51.346,-5.184 -59.331,-9.099C-65.847,-12.294 -71.357,-16.807 -82.764,-6.701C-91.133,0.715 -117.53,24.572 -131.015,36.771L14.449,36.771C22.697,36.771 14.12,26.741 0,19.964" style="fill:rgb(11,132,83);fill-rule:nonzero;"/>
                    </g>
                    <g transform="matrix(2.08326,0,0,2.08326,670.707,421.035)">
                        <path d="M0,-85.897C-21.293,-79.248 -42.949,-72.883 -49.633,-70.86C-55.083,-69.212 -60.211,-69.079 -65.255,-55.261C-68.953,-45.125 -80.485,-12.826 -86.374,3.677C-62.424,-16.776 8.268,-77.143 14.876,-82.79C20.619,-87.692 11.771,-89.574 0,-85.897" style="fill:rgb(43,183,124);fill-rule:nonzero;"/>
                    </g>
                </g>
                <g>
                    <g transform="matrix(2.08326,0,0,2.08326,627.994,475.741)">
                        <path d="M0,108.315C12.258,82.773 25.146,56.97 29.063,48.982C32.258,42.466 36.771,36.958 26.662,25.549C19.25,17.183 -4.61,-9.213 -16.808,-22.699L-16.808,122.765C-16.808,131.014 -6.777,122.436 0,108.315" style="fill:rgb(208,105,33);fill-rule:nonzero;"/>
                    </g>
                    <g transform="matrix(2.08326,0,0,2.08326,779.586,471.409)">
                        <path d="M0,65.755C-6.648,44.461 -13.016,22.804 -15.035,16.122C-16.685,10.671 -16.818,5.542 -30.64,0.5C-40.771,-3.199 -73.069,-14.731 -89.574,-20.62C-69.121,3.331 -8.754,74.022 -3.107,80.632C1.795,86.375 3.678,77.526 0,65.755" style="fill:rgb(235,177,42);fill-rule:nonzero;"/>
                    </g>
                </g>
                <g>
                    <g transform="matrix(2.08326,0,0,2.08326,455.994,483.616)">
                        <path d="M0,-108.312C-12.257,-82.772 -25.146,-56.968 -29.062,-48.98C-32.259,-42.465 -36.772,-36.956 -26.663,-25.547C-19.249,-17.181 4.61,9.214 16.809,22.701L16.809,-122.763C16.809,-131.013 6.777,-122.436 0,-108.312" style="fill:rgb(20,148,207);fill-rule:nonzero;"/>
                    </g>
                    <g transform="matrix(2.08326,0,0,2.08326,304.404,487.949)">
                        <path d="M0,-65.755C6.647,-44.46 13.014,-22.802 15.035,-16.12C16.685,-10.67 16.818,-5.541 30.638,-0.501C40.771,3.2 73.067,14.73 89.574,20.62C69.12,-3.329 8.754,-74.021 3.108,-80.63C-1.797,-86.375 -3.677,-77.526 0,-65.755" style="fill:rgb(51,197,239);fill-rule:nonzero;"/>
                    </g>
                </g>
            </g>
            <g transform="matrix(1.45892,0,0,1.45892,-268.996,-124.254)">
                <g id="Dark-Text" serif:id="Dark Text">
                    <text x="270.073px" y="523.144px" style="font-family:'Exo2-Light', 'Exo 2';font-weight:300;font-size:65.802px;fill:rgb(51,51,51);fill-opacity:0.86;">MA<tspan x="365.486px " y="523.144px ">V</tspan>ERICK</text>
                </g>
            </g>
        </g>
    </g>
</svg>
