<svg viewBox="0 0 500 42" xmlns="http://www.w3.org/2000/svg" fill-rule="evenodd" clip-rule="evenodd" stroke-linejoin="round" stroke-miterlimit="1.41421">
  <g fill-rule="nonzero">
    <path d="M18.2387289 14.7099424h-.882612c-.588408 0-1.029714.441306-1.029714.956163 0 .588408.441306 1.029714 1.029714 1.029714h9.414528c6.031182 0 11.253303 5.075019 11.253303 11.253303 0 6.251835-5.222121 11.253303-11.253303 11.253303h-9.488079c-8.384814 0-15.298608-6.913794-15.298608-15.298608v-6.546039c0-8.384814 6.913794-15.29811766 15.298608-15.29811766h18.167097c.588408 0 1.029714-.441306 1.029714-1.029714 0-.514857-.441306-.956163-1.029714-.956163h-18.167097c-9.414528 0-17.284485 7.86946666-17.284485 17.28399466v6.546039c0 9.414528 7.796406 17.284485 17.284485 17.284485h9.488079c7.207998 0 13.23918-6.031182 13.23918-13.23918 0-7.207998-6.031182-13.23918-13.23918-13.23918h-8.531916zM63.2519409.07378374c-9.414528 0-17.284485 7.86946666-17.284485 17.28399466v6.546039c0 9.414528 7.796406 17.284485 17.284485 17.284485h8.09061c9.267426 0 17.284485-7.796406 17.284485-17.284485v-6.546039c0-9.414528-7.869957-17.28399466-17.284485-17.28399466h-8.09061zM47.9533329 17.3577784c0-8.384814 6.913794-15.29811766 15.298608-15.29811766h8.09061c8.311263 0 15.298608 6.91330366 15.298608 15.29811766v6.546039c0 8.384814-6.987345 15.298608-15.298608 15.298608h-8.09061c-8.384814 0-15.298608-6.913794-15.298608-15.298608v-6.546039zM113.7814779.07378374c-9.414528 0-17.284485 7.86946666-17.284485 17.28399466v6.546039c0 9.414528 7.796406 17.284485 17.284485 17.284485h8.09061c9.267426 0 17.284485-7.796406 17.284485-17.284485v-6.546039c0-9.414528-7.869957-17.28399466-17.284485-17.28399466h-8.09061zM98.4828699 17.3577784c0-8.384814 6.913794-15.29811766 15.298608-15.29811766h8.09061c8.311263 0 15.298608 6.91330366 15.298608 15.29811766v6.546039c0 8.384814-6.987345 15.298608-15.298608 15.298608h-8.09061c-8.384814 0-15.298608-6.913794-15.298608-15.298608v-6.546039zM149.6743659 38.9817724c1.544571 1.397469 3.530448 2.20653 5.663427 2.20653h10.223589c9.488079 0 17.284485-7.869957 17.284485-17.284485v-6.546039c0-9.340977-7.796406-17.28399466-17.284485-17.28399466h-10.223589c-2.132979 0-4.118856.809061-5.663427 2.20653l-.220653.220653c-1.544571 1.544571-2.427183 3.67705966-2.427183 5.88358966v24.492483c0 2.20653.882612 4.339509 2.427183 5.88408l.220653.220653zm1.838775-.956163l-.661959-.661959c-1.176816-1.176816-1.838775-2.794938-1.838775-4.486611V8.3845564c0-1.691673.661959-3.309795 1.838775-4.48612066l.661959-.661959v.073551c1.103265-.809061 2.427183-1.250367 3.824652-1.250367h10.223589c8.311263 0 15.372159 6.83975266 15.372159 15.29811766v6.546039c0 8.458365-7.060896 15.298608-15.372159 15.298608h-10.223589c-1.397469 0-2.721387-.441306-3.824652-1.250367v.073551zM191.5984359 2.50096674c-1.544571 1.544571-2.427183 3.67705966-2.427183 5.88358966v31.847583c0 .514857.441306.956163.956163.956163.588408 0 1.029714-.441306 1.029714-.956163v-13.680486h17.578689l14.342445 14.342445c.147102.220653.441306.294204.661959.294204.588408 0 1.029714-.441306 1.029714-.956163 0-.294204-.147102-.514857-.294204-.73551l-12.797874-12.797874 1.838775-.220653c6.61959-.809061 11.621058-6.61959 11.621058-13.165629 0-7.207998-6.031182-13.23868966-13.23918-13.23868966h-14.415996c-2.132979 0-4.118856.809061-5.663427 2.20653l-.220653.220653zm19.343913 22.06480966h-19.785219v-16.18122c0-1.691673.661959-3.309795 1.838775-4.48612066l.661959-.661959v.073551c1.103265-.809061 2.427183-1.250367 3.824652-1.250367h14.415996c5.957631 0 11.253303 5.00097766 11.253303 11.25281266s-5.295672 11.253303-11.253303 11.253303h-.956163zM249.8508279.07378374c-9.414528 0-17.284485 7.86946666-17.284485 17.28399466v6.546039c0 9.414528 7.796406 17.284485 17.284485 17.284485h8.09061c9.267426 0 17.284485-7.796406 17.284485-17.284485v-6.546039c0-9.414528-7.869957-17.28399466-17.284485-17.28399466h-8.09061zm-15.298608 17.28399466c0-8.384814 6.913794-15.29811766 15.298608-15.29811766h8.09061c8.311263 0 15.298608 6.91330366 15.298608 15.29811766v6.546039c0 8.384814-6.987345 15.298608-15.298608 15.298608h-8.09061c-8.384814 0-15.298608-6.913794-15.298608-15.298608v-6.546039zM311.4865659 2.28031374c-1.544571-1.397469-3.603999-2.20653-5.663427-2.20653h-14.415996c-2.132979 0-4.118856.809061-5.663427 2.20653l-.220653.220653c-1.544571 1.544571-2.427183 3.67705966-2.427183 5.88358966v24.492483c0 2.20653.882612 4.339509 2.427183 5.88408l.220653.220653c1.544571 1.397469 3.530448 2.20653 5.663427 2.20653h14.415996c7.207998 0 13.23918-6.031182 13.23918-13.23918 0-4.927917-2.794938-9.56163-7.502202-11.915262l-1.176816-.588408.956163-.956163c1.912326-.956163 2.794938-4.265958 2.794938-6.104733 0-2.20653-.882612-4.33901866-2.500734-5.88358966l-.147102-.220653zm-23.904075 35.74529566l-.661959-.661959c-1.176816-1.176816-1.838775-2.794938-1.838775-4.486611v-16.18122h20.814933c6.104733 0 11.179752 5.14857 11.179752 11.253303 0 6.251835-5.295672 11.253303-11.253303 11.253303h-14.415996c-1.397469 0-2.721387-.441306-3.824652-1.250367v.073551zm0-34.71558166c1.103265-.809061 2.427183-1.250367 3.824652-1.250367h14.415996c1.323918 0 2.647836.441306 3.751101 1.250367l.073551-.073551.661959.661959c1.176816 1.17632566 1.838775 2.79444766 1.838775 4.48612066 0 3.530448-2.868489 6.325386-6.251835 6.325386h-20.814933v-6.325386c0-1.691673.661959-3.309795 1.838775-4.48612066l.661959-.661959v.073551zM343.0399449.07378374c-9.414528 0-17.284485 7.86946666-17.284485 17.28399466v6.546039c0 9.414528 7.796406 17.284485 17.284485 17.284485h8.09061c9.267426 0 17.284485-7.796406 17.284485-17.284485v-6.546039c0-9.414528-7.869957-17.28399466-17.284485-17.28399466h-8.09061zm-15.298608 17.28399466c0-8.384814 6.913794-15.29811766 15.298608-15.29811766h8.09061c8.311263 0 15.298608 6.91330366 15.298608 15.29811766v6.546039c0 8.384814-6.987345 15.298608-15.298608 15.298608h-8.09061c-8.384814 0-15.298608-6.913794-15.298608-15.298608v-6.546039zM389.8183809 2.05966074h15.960567c.514857 0 .956163-.441306.956163-1.029714 0-.514857-.441306-.956163-.956163-.956163h-33.907011c-.514857 0-.956163.441306-.956163.956163 0 .588408.441306 1.029714.956163 1.029714h15.960567V40.2321394c0 .514857.441306.956163 1.029714.956163.514857 0 .956163-.441306.956163-.956163V2.05966074z" fill="#eee"/>
    <path d="M412.6927419 1.02994674c0-.514857-.441306-.956163-1.029714-.956163-.514857 0-.956163.441306-.956163.956163V40.2321394c0 .514857.441306.956163.956163.956163.588408 0 1.029714-.441306 1.029714-.956163V1.02994674zM440.1272649.07378374c-9.414528 0-17.284485 7.86946666-17.284485 17.28399466v6.546039c0 9.414528 7.796406 17.284485 17.284485 17.284485h14.489547c.588408 0 1.029714-.441306 1.029714-.956163 0-.588408-.441306-1.029714-1.029714-1.029714h-14.489547c-8.384814 0-15.298608-6.913794-15.298608-15.298608v-6.546039c0-8.384814 6.913794-15.29811766 15.298608-15.29811766h14.489547c.588408 0 1.029714-.441306 1.029714-1.029714 0-.514857-.441306-.956163-1.029714-.956163h-14.489547z" fill="#004a78"/>
    <path d="M499.6300239 9.7820254c0-2.574285-1.029714-5.07452866-2.868489-6.91330366l-.220653-.220653c-1.838775-1.691673-4.192407-2.647836-6.693141-2.647836h-16.843179c-2.500734 0-4.854366.956163-6.693141 2.647836l-.220653.220653c-1.838775 1.912326-2.868489 4.33901866-2.868489 6.98685466 0 8.164161 7.796406 10.444242 17.799342 11.694609 5.736978 1.397469 16.990281.441306 16.990281 9.782283 0 4.339509-3.530448 7.869957-7.796406 7.869957h-17.725791c-2.059428 0-4.045305-.809061-5.516325-2.280081l-.220653-.294204c-1.323918-1.47102-2.059428-3.309795-2.059428-5.295672 0-.514857-.441306-.956163-1.029714-.956163-.514857 0-.956163.441306-.956163.956163v.367755c.073551 2.353632 1.029714 4.633713 2.647836 6.325386l.220653.294204c1.838775 1.838775 4.339509 2.868489 6.913794 2.868489h17.725791c5.295672 0 9.782283-4.41306 9.782283-9.855834 0-17.505138-34.789623-5.516325-34.789623-21.476892 0-2.132979.809061-4.118856 2.280081-5.58938566l.661959-.588408c1.397469-1.103265 3.089142-1.691673 4.854366-1.691673h16.843179c1.765224 0 3.456897.588408 4.780815 1.691673l.73551.588408c1.47102 1.47052966 2.280081 3.45640666 2.280081 5.58938566 0 .514857.441306.956163 1.029714.956163.514857 0 .956163-.441306.956163-.956163v-.073551z" fill="#eee"/>
  </g>
</svg>
