<?xml version="1.0" encoding="UTF-8" standalone="no"?><!DOCTYPE svg PUBLIC "-//W3C//DTD SVG 1.1//EN" "http://www.w3.org/Graphics/SVG/1.1/DTD/svg11.dtd"><svg width="100%" height="100%" viewBox="0 0 737 79" version="1.1" xmlns="http://www.w3.org/2000/svg" xmlns:xlink="http://www.w3.org/1999/xlink" xml:space="preserve" xmlns:serif="http://www.serif.com/" style="fill-rule:evenodd;clip-rule:evenodd;stroke-linejoin:round;stroke-miterlimit:1.41421;"><g><path d="M64.816,74.84c-6.282,2.759 -14.144,4.14 -23.584,4.14c-27.488,0 -41.232,-13.528 -41.232,-40.581c0,-25.599 13.98,-38.399 41.939,-38.399c8.532,0 16.159,1.273 22.877,3.813l0,13.073c-6.718,-2.906 -13.98,-4.359 -21.788,-4.359c-18.7,0 -28.05,8.627 -28.05,25.872c0,18.702 8.824,28.053 26.472,28.053c2.613,0 5.59,-0.437 8.932,-1.308l0,-22.659l14.434,0l0,32.355Z" style="fill:#fff;fill-rule:nonzero;"/><path d="M110.354,66.453c15.687,0 23.531,-9.061 23.531,-27.182c0,-17.83 -7.844,-26.743 -23.531,-26.743c-16.085,0 -24.128,8.913 -24.128,26.743c0,18.121 8.043,27.182 24.128,27.182m-39.107,-26.856c0,-26.396 13.036,-39.597 39.107,-39.597c25.673,0 38.509,13.201 38.509,39.597c0,26.253 -12.836,39.383 -38.509,39.383c-24.91,0 -37.945,-13.13 -39.107,-39.383" style="fill:#fff;fill-rule:nonzero;"/><path d="M194.401,66.453c15.687,0 23.53,-9.061 23.53,-27.182c0,-17.83 -7.843,-26.743 -23.53,-26.743c-16.085,0 -24.128,8.913 -24.128,26.743c0,18.121 8.043,27.182 24.128,27.182m-39.108,-26.856c0,-26.396 13.037,-39.597 39.108,-39.597c25.673,0 38.508,13.201 38.508,39.597c0,26.253 -12.835,39.383 -38.508,39.383c-24.91,0 -37.945,-13.13 -39.108,-39.383" style="fill:#fff;fill-rule:nonzero;"/><path d="M272.566,65.908c16.159,0 24.239,-9.514 24.239,-28.541c0,-16.195 -8.08,-24.294 -24.239,-24.294l-16.067,0l0,52.835l16.067,0Zm-30.501,12.527l0,-77.889l30.501,0c25.782,0 38.673,12.275 38.673,36.821c0,27.378 -12.891,41.068 -38.673,41.068l-30.501,0Z" style="fill:#fff;fill-rule:nonzero;"/><path d="M323.321,78.435l0,-77.889l33.225,0c14.817,0 22.222,6.226 22.222,18.682c0,10.131 -7.244,17.63 -21.731,22.494l26.742,36.713l-13.288,0l-24.784,-35.024l0,-6.59c14.888,-2.361 22.331,-8.078 22.331,-17.158c0,-7.19 -4.138,-10.785 -12.417,-10.785l-22.223,0l0,69.557l-10.077,0Z" style="fill:#fff;fill-rule:nonzero;"/><path d="M425.234,70.808c18.59,0 27.889,-10.512 27.889,-31.536c0,-20.732 -9.299,-31.1 -27.889,-31.1c-18.992,0 -28.487,10.368 -28.487,31.1c0,21.024 9.495,31.536 28.487,31.536m-39.106,-31.211c0,-26.396 13.033,-39.597 39.106,-39.597c25.671,0 38.507,13.201 38.507,39.597c0,26.254 -12.836,39.383 -38.507,39.383c-26.073,0 -39.106,-13.129 -39.106,-39.383" style="fill:#fff;fill-rule:nonzero;"/><path d="M504.379,70.263c9.296,0 13.944,-4.718 13.944,-14.159c0,-9.189 -6.228,-13.784 -18.683,-13.784l-4.359,0l0,-6.59c14.888,-1.994 22.332,-7.368 22.332,-16.121c0,-7.262 -4.139,-10.892 -12.417,-10.892l-22.223,0l0,61.546l21.406,0Zm-31.483,8.172l0,-77.89l33.227,0c14.815,0 22.22,6.048 22.22,18.138c0,8.86 -4.828,15.196 -14.486,19.01c10.31,1.927 15.469,7.824 15.469,17.701c0,15.36 -8.118,23.041 -24.348,23.041l-32.082,0Z" style="fill:#fff;fill-rule:nonzero;"/><path d="M576.169,70.808c18.593,0 27.889,-10.512 27.889,-31.536c0,-20.732 -9.296,-31.1 -27.889,-31.1c-18.992,0 -28.484,10.368 -28.484,31.1c0,21.024 9.492,31.536 28.484,31.536m-39.106,-31.211c0,-26.396 13.036,-39.597 39.106,-39.597c25.671,0 38.51,13.201 38.51,39.597c0,26.254 -12.839,39.383 -38.51,39.383c-26.07,0 -39.106,-13.129 -39.106,-39.383" style="fill:#fff;fill-rule:nonzero;"/><path d="M674.761,0.545l0,8.172l-24.509,0l0,69.718l-10.078,0l0,-69.718l-24.508,0l0,-8.172l59.095,0Z" style="fill:#fff;fill-rule:nonzero;"/><path d="M679.56,75.712l0,-9.259c8.168,2.902 16.993,4.356 26.471,4.356c13.399,0 20.096,-4.902 20.096,-14.706c0,-8.351 -4.935,-12.527 -14.815,-12.527l-11.11,0c-16.305,0 -24.455,-7.081 -24.455,-21.245c0,-14.887 10.438,-22.331 31.318,-22.331c9.08,0 17.52,1.091 25.326,3.269l0,9.259c-7.806,-2.904 -16.246,-4.356 -25.326,-4.356c-14.161,0 -21.242,4.721 -21.242,14.159c0,8.356 4.793,12.527 14.379,12.527l11.11,0c16.595,0 24.893,7.082 24.893,21.245c0,15.25 -10.059,22.877 -30.174,22.877c-9.478,0 -18.303,-1.09 -26.471,-3.268" style="fill:#fff;fill-rule:nonzero;"/></g></svg>