<?xml version="1.0" encoding="UTF-8" standalone="no"?><!DOCTYPE svg PUBLIC "-//W3C//DTD SVG 1.1//EN" "http://www.w3.org/Graphics/SVG/1.1/DTD/svg11.dtd"><svg width="817px" height="100px" version="1.1" xmlns="http://www.w3.org/2000/svg" xmlns:xlink="http://www.w3.org/1999/xlink" xml:space="preserve" xmlns:serif="http://www.serif.com/" style="fill-rule:evenodd;clip-rule:evenodd;stroke-linejoin:round;stroke-miterlimit:1.41421;"><g><g><path d="M178.88,83.569c-5.966,2.62 -13.432,3.931 -22.396,3.931c-26.103,0 -39.154,-12.846 -39.154,-38.536c0,-24.309 13.275,-36.464 39.826,-36.464c8.102,0 15.344,1.209 21.724,3.621l0,12.414c-6.38,-2.76 -13.276,-4.139 -20.69,-4.139c-17.758,0 -26.637,8.192 -26.637,24.568c0,17.76 8.379,26.64 25.138,26.64c2.482,0 5.309,-0.416 8.482,-1.243l0,-21.517l13.707,0l0,30.725Z" style="fill:#fff;fill-rule:nonzero;"/><path d="M222.123,75.604c14.897,0 22.345,-8.605 22.345,-25.812c0,-16.931 -7.448,-25.396 -22.345,-25.396c-15.275,0 -22.912,8.465 -22.912,25.396c0,17.207 7.637,25.812 22.912,25.812m-37.137,-25.502c0,-25.066 12.38,-37.602 37.137,-37.602c24.379,0 36.568,12.536 36.568,37.602c0,24.929 -12.189,37.398 -36.568,37.398c-23.655,0 -36.033,-12.469 -37.137,-37.398" style="fill:#fff;fill-rule:nonzero;"/><path d="M301.935,75.604c14.896,0 22.344,-8.605 22.344,-25.812c0,-16.931 -7.448,-25.396 -22.344,-25.396c-15.275,0 -22.913,8.465 -22.913,25.396c0,17.207 7.638,25.812 22.913,25.812m-37.138,-25.502c0,-25.066 12.38,-37.602 37.138,-37.602c24.378,0 36.567,12.536 36.567,37.602c0,24.929 -12.189,37.398 -36.567,37.398c-23.656,0 -36.034,-12.469 -37.138,-37.398" style="fill:#fff;fill-rule:nonzero;"/><path d="M376.161,75.086c15.344,0 23.017,-9.034 23.017,-27.102c0,-15.378 -7.673,-23.07 -23.017,-23.07l-15.258,0l0,50.172l15.258,0Zm-28.964,11.896l0,-73.964l28.964,0c24.482,0 36.723,11.657 36.723,34.966c0,25.998 -12.241,38.998 -36.723,38.998l-28.964,0Z" style="fill:#fff;fill-rule:nonzero;"/><path d="M424.358,86.982l0,-73.964l31.55,0c14.071,0 21.102,5.913 21.102,17.741c0,9.621 -6.878,16.741 -20.636,21.361l25.394,34.862l-12.618,0l-23.534,-33.259l0,-6.258c14.137,-2.241 21.205,-7.671 21.205,-16.293c0,-6.827 -3.929,-10.241 -11.791,-10.241l-21.103,0l0,66.051l-9.569,0Z" style="fill:#fff;fill-rule:nonzero;"/><path d="M521.135,79.74c17.653,0 26.484,-9.982 26.484,-29.947c0,-19.688 -8.831,-29.533 -26.484,-29.533c-18.035,0 -27.051,9.845 -27.051,29.533c0,19.965 9.016,29.947 27.051,29.947m-37.136,-29.638c0,-25.066 12.377,-37.602 37.136,-37.602c24.378,0 36.566,12.536 36.566,37.602c0,24.931 -12.188,37.398 -36.566,37.398c-24.759,0 -37.136,-12.467 -37.136,-37.398" style="fill:#fff;fill-rule:nonzero;"/><path d="M596.291,79.222c8.828,0 13.242,-4.48 13.242,-13.445c0,-8.726 -5.915,-13.089 -17.742,-13.089l-4.139,0l0,-6.258c14.137,-1.894 21.207,-6.997 21.207,-15.309c0,-6.896 -3.931,-10.343 -11.791,-10.343l-21.104,0l0,58.444l20.327,0Zm-29.896,7.76l0,-73.964l31.552,0c14.069,0 21.101,5.743 21.101,17.223c0,8.414 -4.585,14.431 -13.756,18.053c9.79,1.829 14.689,7.429 14.689,16.808c0,14.586 -7.709,21.88 -23.12,21.88l-30.466,0Z" style="fill:#fff;fill-rule:nonzero;"/><path d="M664.464,79.74c17.656,0 26.483,-9.982 26.483,-29.947c0,-19.688 -8.827,-29.533 -26.483,-29.533c-18.035,0 -27.049,9.845 -27.049,29.533c0,19.965 9.014,29.947 27.049,29.947m-37.136,-29.638c0,-25.066 12.38,-37.602 37.136,-37.602c24.377,0 36.569,12.536 36.569,37.602c0,24.931 -12.192,37.398 -36.569,37.398c-24.756,0 -37.136,-12.467 -37.136,-37.398" style="fill:#fff;fill-rule:nonzero;"/><path d="M758.087,13.018l0,7.76l-23.273,0l0,66.204l-9.571,0l0,-66.204l-23.273,0l0,-7.76l56.117,0Z" style="fill:#fff;fill-rule:nonzero;"/><path d="M762.644,84.396l0,-8.792c7.757,2.756 16.137,4.136 25.138,4.136c12.723,0 19.083,-4.654 19.083,-13.964c0,-7.93 -4.687,-11.896 -14.069,-11.896l-10.55,0c-15.483,0 -23.223,-6.724 -23.223,-20.174c0,-14.138 9.913,-21.206 29.74,-21.206c8.622,0 16.637,1.036 24.05,3.104l0,8.792c-7.413,-2.757 -15.428,-4.136 -24.05,-4.136c-13.447,0 -20.171,4.483 -20.171,13.446c0,7.934 4.551,11.896 13.654,11.896l10.55,0c15.759,0 23.639,6.724 23.639,20.174c0,14.481 -9.552,21.724 -28.653,21.724c-9.001,0 -17.381,-1.036 -25.138,-3.104" style="fill:#fff;fill-rule:nonzero;"/></g><g><g><path d="M7.121,66.632c10.29,4.94 20.687,10.132 23.905,11.71c2.625,1.288 4.844,3.106 9.442,-0.967c3.371,-2.987 14.006,-12.599 19.438,-17.514l-58.607,0c-3.324,0 0.133,4.04 5.822,6.771" style="fill:#a2133d;fill-rule:nonzero;"/><path d="M25.107,95.951c8.578,-2.679 17.304,-5.245 19.996,-6.059c2.197,-0.664 4.263,-0.717 6.294,-6.285c1.49,-4.083 6.139,-17.097 8.51,-23.746c-9.65,8.239 -38.132,32.563 -40.795,34.838c-2.314,1.975 1.252,2.733 5.995,1.252" style="fill:#e01d5a;fill-rule:nonzero;"/></g><g><path d="M92.879,33.368c-10.291,-4.939 -20.688,-10.133 -23.905,-11.71c-2.625,-1.287 -4.845,-3.106 -9.441,0.966c-3.372,2.988 -14.008,12.6 -19.441,17.515l58.609,0c3.323,0 -0.133,-4.041 -5.822,-6.771" style="fill:#0b8453;fill-rule:nonzero;"/><path d="M74.893,4.049c-8.579,2.679 -17.304,5.244 -19.997,6.059c-2.196,0.664 -4.262,0.717 -6.295,6.285c-1.49,4.084 -6.136,17.097 -8.509,23.746c9.65,-8.24 38.132,-32.563 40.795,-34.838c2.314,-1.975 -1.251,-2.733 -5.994,-1.252" style="fill:#2bb77c;fill-rule:nonzero;"/></g><g><path d="M66.632,92.879c4.939,-10.291 10.132,-20.687 11.71,-23.906c1.287,-2.625 3.106,-4.844 -0.967,-9.441c-2.987,-3.371 -12.6,-14.006 -17.515,-19.439l0,58.608c0,3.324 4.042,-0.132 6.772,-5.822" style="fill:#d06921;fill-rule:nonzero;"/><path d="M95.95,74.894c-2.678,-8.58 -5.244,-17.306 -6.057,-19.998c-0.665,-2.196 -0.719,-4.263 -6.288,-6.294c-4.082,-1.491 -17.095,-6.137 -23.745,-8.51c8.241,9.65 32.563,38.132 34.839,40.796c1.975,2.313 2.733,-1.252 1.251,-5.994" style="fill:#ebb12a;fill-rule:nonzero;"/></g><g><path d="M33.367,7.122c-4.939,10.29 -10.132,20.686 -11.709,23.905c-1.289,2.625 -3.107,4.844 0.966,9.441c2.987,3.371 12.6,14.006 17.515,19.44l0,-58.609c0,-3.324 -4.042,0.132 -6.772,5.823" style="fill:#1494cf;fill-rule:nonzero;"/><path d="M4.049,25.106c2.678,8.58 5.243,17.306 6.058,19.998c0.665,2.196 0.718,4.263 6.286,6.293c4.083,1.492 17.095,6.137 23.746,8.51c-8.241,-9.649 -32.563,-38.131 -34.838,-40.794c-1.976,-2.315 -2.733,1.251 -1.252,5.993" style="fill:#33c5ef;fill-rule:nonzero;"/></g></g></g></svg>