<svg width="100%" height="100%" viewBox="0 0 737 500" xmlns="http://www.w3.org/2000/svg" fill-rule="evenodd" clip-rule="evenodd" stroke-linejoin="round" stroke-miterlimit="1.414"><g fill-rule="nonzero"><g fill="#fff"><path d="M64.816 495.86c-6.282 2.759-14.144 4.14-23.584 4.14C13.744 500 0 486.472 0 459.419c0-25.599 13.98-38.399 41.939-38.399 8.532 0 16.159 1.273 22.877 3.813v13.073c-6.718-2.906-13.98-4.359-21.788-4.359-18.7 0-28.05 8.627-28.05 25.872 0 18.702 8.824 28.053 26.472 28.053 2.613 0 5.59-.437 8.932-1.308v-22.659h14.434v32.355zM110.354 487.473c15.687 0 23.531-9.062 23.531-27.182 0-17.83-7.844-26.743-23.531-26.743-16.085 0-24.128 8.913-24.128 26.743 0 18.12 8.043 27.182 24.128 27.182m-39.107-26.856c0-26.396 13.036-39.597 39.107-39.597 25.673 0 38.509 13.201 38.509 39.597 0 26.253-12.836 39.383-38.509 39.383-24.91 0-37.945-13.13-39.107-39.383M194.401 487.473c15.687 0 23.53-9.062 23.53-27.182 0-17.83-7.843-26.743-23.53-26.743-16.085 0-24.128 8.913-24.128 26.743 0 18.12 8.043 27.182 24.128 27.182m-39.108-26.856c0-26.396 13.037-39.597 39.108-39.597 25.673 0 38.508 13.201 38.508 39.597 0 26.253-12.835 39.383-38.508 39.383-24.91 0-37.945-13.13-39.108-39.383M272.566 486.927c16.159 0 24.239-9.513 24.239-28.54 0-16.195-8.08-24.294-24.239-24.294h-16.067v52.834h16.067zm-30.501 12.528v-77.889h30.501c25.782 0 38.673 12.275 38.673 36.821 0 27.378-12.891 41.068-38.673 41.068h-30.501zM323.321 499.455v-77.89h33.225c14.817 0 22.222 6.227 22.222 18.682 0 10.132-7.244 17.63-21.731 22.495l26.742 36.713h-13.288l-24.784-35.024v-6.59c14.888-2.361 22.331-8.078 22.331-17.158 0-7.19-4.138-10.785-12.417-10.785h-22.223v69.557h-10.077zM425.234 491.828c18.59 0 27.889-10.512 27.889-31.536 0-20.733-9.299-31.1-27.889-31.1-18.992 0-28.487 10.367-28.487 31.1 0 21.024 9.495 31.536 28.487 31.536m-39.106-31.211c0-26.396 13.033-39.597 39.106-39.597 25.671 0 38.507 13.201 38.507 39.597 0 26.254-12.836 39.383-38.507 39.383-26.073 0-39.106-13.129-39.106-39.383M504.379 491.283c9.296 0 13.944-4.718 13.944-14.159 0-9.189-6.228-13.784-18.683-13.784h-4.359v-6.59c14.888-1.994 22.332-7.368 22.332-16.121 0-7.262-4.139-10.892-12.417-10.892h-22.223v61.546h21.406zm-31.483 8.171v-77.889h33.227c14.815 0 22.22 6.048 22.22 18.138 0 8.86-4.828 15.196-14.486 19.01 10.31 1.926 15.469 7.824 15.469 17.701 0 15.36-8.118 23.04-24.348 23.04h-32.082zM576.169 491.828c18.593 0 27.889-10.512 27.889-31.536 0-20.733-9.296-31.1-27.889-31.1-18.992 0-28.484 10.367-28.484 31.1 0 21.024 9.492 31.536 28.484 31.536m-39.106-31.211c0-26.396 13.036-39.597 39.106-39.597 25.671 0 38.51 13.201 38.51 39.597 0 26.254-12.839 39.383-38.51 39.383-26.07 0-39.106-13.129-39.106-39.383M674.761 421.565v8.172h-24.509v69.717h-10.078v-69.717h-24.508v-8.172h59.095zM679.56 496.732v-9.259c8.168 2.901 16.993 4.355 26.471 4.355 13.399 0 20.096-4.901 20.096-14.705 0-8.351-4.935-12.527-14.815-12.527h-11.11c-16.305 0-24.455-7.081-24.455-21.245 0-14.888 10.438-22.331 31.318-22.331 9.08 0 17.52 1.091 25.326 3.269v9.259c-7.806-2.904-16.246-4.356-25.326-4.356-14.161 0-21.242 4.721-21.242 14.159 0 8.356 4.793 12.527 14.379 12.527h11.11c16.595 0 24.893 7.082 24.893 21.245 0 15.25-10.059 22.877-30.174 22.877-9.478 0-18.303-1.09-26.471-3.268"/></g><path d="M202.652 253.643c39.171 18.803 78.745 38.568 90.995 44.572 9.992 4.905 18.441 11.825 35.942-3.679 12.831-11.37 53.317-47.961 73.995-66.67H180.49c-12.654 0 .505 15.38 22.162 25.777" fill="#a2133d"/><path d="M271.116 365.245c32.655-10.194 65.871-19.963 76.116-23.062 8.365-2.529 16.231-2.729 23.961-23.925 5.673-15.544 23.367-65.082 32.392-90.393-36.732 31.366-145.15 123.957-155.288 132.615-8.809 7.518 4.764 10.404 22.819 4.765" fill="#e01d5a"/><path d="M529.098 127.018c-39.173-18.8-78.75-38.57-90.996-44.574-9.994-4.901-18.445-11.822-35.94 3.677-12.835 11.374-53.32 47.964-74.002 66.674h223.098c12.65 0-.504-15.383-22.16-25.777" fill="#0b8453"/><path d="M460.632 15.414c-32.657 10.198-65.871 19.96-76.122 23.063-8.359 2.527-16.224 2.731-23.96 23.924-5.671 15.546-23.358 65.083-32.39 90.393C364.892 121.426 473.313 28.84 483.448 20.18c8.808-7.519-4.762-10.405-22.816-4.766" fill="#2bb77c"/><g><path d="M429.187 353.553c18.8-39.173 38.566-78.748 44.574-90.999 4.9-9.993 11.822-18.441-3.683-35.939-11.367-12.831-47.962-53.315-66.67-73.998v223.099c0 12.651 15.385-.505 25.779-22.163" fill="#d06921"/><path d="M540.789 285.09c-10.196-32.659-19.962-65.875-23.059-76.123-2.531-8.36-2.735-16.226-23.933-23.959-15.538-5.674-65.074-23.36-90.388-32.392 31.369 36.734 123.954 145.153 132.615 155.29 7.518 8.809 10.406-4.763 4.765-22.816" fill="#ebb12a"/></g><g><path d="M302.559 27.109c-18.799 39.171-38.567 78.746-44.573 90.998-4.903 9.992-11.825 18.441 3.68 35.939 11.37 12.831 47.963 53.313 66.673 73.998V4.945c0-12.653-15.386.502-25.78 22.164" fill="#1494cf"/><path d="M190.958 95.569c10.194 32.66 19.959 65.877 23.059 76.126 2.531 8.358 2.735 16.225 23.93 23.955 15.542 5.676 65.074 23.359 90.391 32.393-31.371-36.731-123.954-145.151-132.613-155.288-7.523-8.811-10.407 4.761-4.767 22.814" fill="#33c5ef"/></g></g></svg>
