<?xml version="1.0" encoding="UTF-8" standalone="no"?><!DOCTYPE svg PUBLIC "-//W3C//DTD SVG 1.1//EN" "http://www.w3.org/Graphics/SVG/1.1/DTD/svg11.dtd"><svg width="100%" height="100%" viewBox="0 0 482 485" version="1.1" xmlns="http://www.w3.org/2000/svg" xmlns:xlink="http://www.w3.org/1999/xlink" xml:space="preserve" xmlns:serif="http://www.serif.com/" style="fill-rule:evenodd;clip-rule:evenodd;stroke-linejoin:round;stroke-miterlimit:1.41421;"><g><g><path d="M75.253,253.643c39.171,18.803 78.745,38.568 90.995,44.572c9.992,4.905 18.441,11.825 35.942,-3.679c12.831,-11.37 53.317,-47.961 73.996,-66.67l-223.095,0c-12.654,0 0.505,15.38 22.162,25.777" style="fill:#a2133d;fill-rule:nonzero;"/><path d="M143.717,365.245c32.655,-10.194 65.871,-19.963 76.116,-23.062c8.365,-2.529 16.231,-2.729 23.961,-23.925c5.673,-15.544 23.368,-65.082 32.392,-90.393c-36.732,31.366 -145.15,123.957 -155.288,132.615c-8.809,7.518 4.764,10.404 22.819,4.765" style="fill:#e01d5a;fill-rule:nonzero;"/></g><g><path d="M401.699,127.018c-39.172,-18.8 -78.75,-38.57 -90.996,-44.574c-9.994,-4.901 -18.445,-11.822 -35.94,3.677c-12.835,11.374 -53.32,47.964 -74.002,66.674l223.098,0c12.65,0 -0.504,-15.383 -22.16,-25.777" style="fill:#0b8453;fill-rule:nonzero;"/><path d="M333.233,15.414c-32.657,10.198 -65.871,19.96 -76.122,23.063c-8.359,2.527 -16.223,2.731 -23.959,23.924c-5.672,15.546 -23.359,65.083 -32.391,90.393c36.732,-31.368 145.153,-123.954 155.288,-132.614c8.808,-7.519 -4.762,-10.405 -22.816,-4.766" style="fill:#2bb77c;fill-rule:nonzero;"/></g><g><path d="M301.788,353.553c18.8,-39.173 38.566,-78.748 44.574,-90.999c4.9,-9.993 11.822,-18.441 -3.683,-35.939c-11.367,-12.831 -47.962,-53.315 -66.67,-73.998l0,223.099c0,12.651 15.385,-0.505 25.779,-22.163" style="fill:#d06921;fill-rule:nonzero;"/><path d="M413.39,285.09c-10.196,-32.659 -19.962,-65.875 -23.059,-76.123c-2.531,-8.36 -2.735,-16.226 -23.933,-23.959c-15.538,-5.674 -65.074,-23.36 -90.388,-32.392c31.369,36.734 123.954,145.153 132.615,155.29c7.518,8.809 10.406,-4.763 4.765,-22.816" style="fill:#ebb12a;fill-rule:nonzero;"/></g><g><path d="M175.16,27.109c-18.799,39.171 -38.567,78.746 -44.573,90.998c-4.903,9.992 -11.825,18.441 3.68,35.939c11.371,12.831 47.963,53.313 66.673,73.998l0,-223.099c0,-12.653 -15.386,0.502 -25.78,22.164" style="fill:#1494cf;fill-rule:nonzero;"/><path d="M63.559,95.569c10.194,32.66 19.96,65.877 23.059,76.126c2.531,8.358 2.735,16.225 23.931,23.955c15.541,5.676 65.073,23.359 90.39,32.393c-31.37,-36.731 -123.954,-145.151 -132.613,-155.288c-7.523,-8.811 -10.406,4.761 -4.767,22.814" style="fill:#33c5ef;fill-rule:nonzero;"/></g><g id="Layer1"><text x="-7.668px" y="483.239px" style="font-family:'Exo2-Regular', 'Exo 2';font-size:105.042px;fill:#fff;">MA<tspan x="146.218px " y="483.239px ">V</tspan>ERICK</text></g></g></svg>