<?xml version="1.0" encoding="UTF-8" standalone="no"?>
<!DOCTYPE svg PUBLIC "-//W3C//DTD SVG 1.1//EN" "http://www.w3.org/Graphics/SVG/1.1/DTD/svg11.dtd">
<svg width="100%" height="100%" viewBox="0 0 482 485" version="1.1" xmlns="http://www.w3.org/2000/svg" xmlns:xlink="http://www.w3.org/1999/xlink" xml:space="preserve" xmlns:serif="http://www.serif.com/" style="fill-rule:evenodd;clip-rule:evenodd;stroke-linejoin:round;stroke-miterlimit:1.41421;">
    <g transform="matrix(1,0,0,1,-296.796,-178)">
        <g transform="matrix(1,0,0,1,1,-64)">
            <g transform="matrix(0.736205,0,0,0.736205,135.251,79.1872)">
                <g>
                    <g transform="matrix(2.08326,0,0,2.08326,320.289,607.271)">
                        <path d="M0,-19.965C25.54,-7.705 51.343,5.182 59.33,9.097C65.845,12.295 71.354,16.807 82.765,6.698C91.131,-0.715 117.528,-24.573 131.011,-36.772L-14.45,-36.772C-22.701,-36.772 -14.121,-26.744 0,-19.965" style="fill:rgb(162,19,61);fill-rule:nonzero;"/>
                    </g>
                    <g transform="matrix(2.08326,0,0,2.08326,413.284,538.324)">
                        <path d="M0,85.897C21.292,79.25 42.949,72.881 49.629,70.86C55.083,69.211 60.212,69.081 65.252,55.261C68.951,45.126 80.488,12.826 86.372,-3.677C62.422,16.774 -8.268,77.145 -14.878,82.79C-20.622,87.692 -11.772,89.574 0,85.897" style="fill:rgb(224,29,90);fill-rule:nonzero;"/>
                    </g>
                </g>
                <g>
                    <g transform="matrix(2.08326,0,0,2.08326,763.705,352.091)">
                        <path d="M0,19.964C-25.541,7.706 -51.346,-5.184 -59.331,-9.099C-65.847,-12.294 -71.357,-16.807 -82.764,-6.701C-91.133,0.715 -117.53,24.572 -131.015,36.771L14.449,36.771C22.697,36.771 14.12,26.741 0,19.964" style="fill:rgb(11,132,83);fill-rule:nonzero;"/>
                    </g>
                    <g transform="matrix(2.08326,0,0,2.08326,670.707,421.035)">
                        <path d="M0,-85.897C-21.293,-79.248 -42.949,-72.883 -49.633,-70.86C-55.083,-69.212 -60.211,-69.079 -65.255,-55.261C-68.953,-45.125 -80.485,-12.826 -86.374,3.677C-62.424,-16.776 8.268,-77.143 14.876,-82.79C20.619,-87.692 11.771,-89.574 0,-85.897" style="fill:rgb(43,183,124);fill-rule:nonzero;"/>
                    </g>
                </g>
                <g>
                    <g transform="matrix(2.08326,0,0,2.08326,627.994,475.741)">
                        <path d="M0,108.315C12.258,82.773 25.146,56.97 29.063,48.982C32.258,42.466 36.771,36.958 26.662,25.549C19.25,17.183 -4.61,-9.213 -16.808,-22.699L-16.808,122.765C-16.808,131.014 -6.777,122.436 0,108.315" style="fill:rgb(208,105,33);fill-rule:nonzero;"/>
                    </g>
                    <g transform="matrix(2.08326,0,0,2.08326,779.586,471.409)">
                        <path d="M0,65.755C-6.648,44.461 -13.016,22.804 -15.035,16.122C-16.685,10.671 -16.818,5.542 -30.64,0.5C-40.771,-3.199 -73.069,-14.731 -89.574,-20.62C-69.121,3.331 -8.754,74.022 -3.107,80.632C1.795,86.375 3.678,77.526 0,65.755" style="fill:rgb(235,177,42);fill-rule:nonzero;"/>
                    </g>
                </g>
                <g>
                    <g transform="matrix(2.08326,0,0,2.08326,455.994,483.616)">
                        <path d="M0,-108.312C-12.257,-82.772 -25.146,-56.968 -29.062,-48.98C-32.259,-42.465 -36.772,-36.956 -26.663,-25.547C-19.249,-17.181 4.61,9.214 16.809,22.701L16.809,-122.763C16.809,-131.013 6.777,-122.436 0,-108.312" style="fill:rgb(20,148,207);fill-rule:nonzero;"/>
                    </g>
                    <g transform="matrix(2.08326,0,0,2.08326,304.404,487.949)">
                        <path d="M0,-65.755C6.647,-44.46 13.014,-22.802 15.035,-16.12C16.685,-10.67 16.818,-5.541 30.638,-0.501C40.771,3.2 73.067,14.73 89.574,20.62C69.12,-3.329 8.754,-74.021 3.108,-80.63C-1.797,-86.375 -3.677,-77.526 0,-65.755" style="fill:rgb(51,197,239);fill-rule:nonzero;"/>
                    </g>
                </g>
                <g transform="matrix(1.98167,0,0,1.98167,-327.54,-159.156)">
                    <g id="Layer1">
                        <path d="M316.153,473.464C314.713,473.464 313.777,474.184 313.417,475.624L304.129,505.792C303.409,508.168 302.905,510.328 302.257,512.632L300.961,512.632C300.313,510.328 299.809,508.168 299.089,505.936L289.801,475.624C289.369,474.184 288.577,473.464 287.137,473.464L279.937,473.464C278.281,473.464 277.345,474.4 277.273,476.128L275.329,523.144L281.665,523.144L283.393,478.72L284.833,478.72L295.921,515.368C296.353,516.736 297.289,517.528 298.801,517.528L304.489,517.528C305.929,517.528 306.865,516.736 307.225,515.368L318.313,478.72L319.825,478.72L321.625,523.144L327.961,523.144L325.873,476.128C325.873,474.4 324.937,473.464 323.281,473.464L316.153,473.464Z" style="fill:white;fill-rule:nonzero;"/>
                        <path d="M365.833,507.592L370.729,523.144L377.281,523.144L361.297,475.192C361.009,474.112 360.073,473.464 358.921,473.464L352.297,473.464C351.145,473.464 350.209,474.112 349.921,475.192L333.937,523.144L340.489,523.144L345.385,507.592L365.833,507.592ZM364.105,502.12L347.113,502.12L353.377,482.392C353.809,481.096 354.241,479.656 354.601,478.36L356.617,478.36C356.977,479.656 357.409,481.096 357.841,482.392L364.105,502.12Z" style="fill:white;fill-rule:nonzero;"/>
                        <path d="M418.177,473.464L411.625,473.464L399.961,512.776C399.385,514.576 398.881,516.448 398.449,518.248L396.505,518.248C396.073,516.448 395.569,514.648 395.065,512.848L383.329,473.464L376.777,473.464L391.825,521.344C392.113,522.352 393.049,523.144 394.273,523.144L400.681,523.144C401.833,523.144 402.769,522.352 403.129,521.344L418.177,473.464Z" style="fill:white;fill-rule:nonzero;"/>
                        <path d="M455.833,517.888L435.889,517.888C432.937,517.888 431.569,516.448 431.569,513.064L431.569,499.456L453.025,499.456L453.025,494.344L431.569,494.344L431.569,483.544C431.569,480.232 432.937,478.792 435.889,478.792L455.833,478.792L456.121,473.824C449.497,473.392 441.937,473.392 434.809,473.392C428.977,473.392 425.305,476.704 425.233,482.032L425.233,514.576C425.305,519.904 428.977,523.216 434.809,523.216C441.937,523.216 449.497,523.216 456.121,522.784L455.833,517.888Z" style="fill:white;fill-rule:nonzero;"/>
                        <path d="M500.977,523.144L496.153,507.448C495.073,503.272 492.481,500.968 490.033,500.32L490.033,499.96C496.585,499.096 499.177,495.208 499.177,487.144C499.177,475.984 494.641,472.816 483.121,472.816C475.129,472.816 471.385,472.888 465.985,473.464L465.985,523.144L472.249,523.144L472.249,502.336C474.985,502.336 478.585,502.408 483.193,502.408C486.505,502.408 488.521,503.848 489.817,507.592L494.209,523.144L500.977,523.144ZM472.249,496.936L472.249,478.36C475.057,478.36 478.729,478.288 482.977,478.288C490.321,478.288 492.769,480.232 492.769,487.504C492.769,494.848 490.321,496.864 482.977,496.936L472.249,496.936Z" style="fill:white;fill-rule:nonzero;"/>
                        <rect x="510.481" y="473.464" width="6.336" height="49.68" style="fill:white;fill-rule:nonzero;"/>
                        <path d="M546.985,472.6C532.657,472.6 527.473,479.368 527.473,498.304C527.473,517.24 532.657,524.008 546.985,524.008C553.465,524.008 557.353,523.504 561.529,522.352L560.881,517.6C556.849,518.176 553.105,518.392 546.985,518.392C537.265,518.392 534.169,513.424 534.169,498.304C534.169,483.184 537.265,478.216 546.985,478.216C552.745,478.216 555.553,478.432 559.873,478.864L560.521,474.04C556.417,473.032 553.249,472.6 546.985,472.6Z" style="fill:white;fill-rule:nonzero;"/>
                        <path d="M582.337,499.816L598.177,523.144L605.305,523.144L590.185,500.824C589.393,499.672 588.313,498.52 587.089,497.368L587.089,497.224C588.241,496.072 588.961,495.352 589.825,494.056L604.297,473.464L597.385,473.464L582.265,494.704L576.217,494.704C576.505,492.832 576.649,491.032 576.649,489.016L576.649,473.464L570.385,473.464L570.385,523.144L576.649,523.144L576.649,505.072C576.649,503.344 576.505,501.616 576.217,499.816L582.337,499.816Z" style="fill:white;fill-rule:nonzero;"/>
                    </g>
                </g>
            </g>
        </g>
    </g>
</svg>
