<svg viewBox="0 0 500 67" xmlns="http://www.w3.org/2000/svg" fill-rule="evenodd" clip-rule="evenodd" stroke-linejoin="round" stroke-miterlimit="1.41421">
  <g fill="#eee" fill-rule="nonzero">
    <path d="M11.1372894 4.97617208c.23708887-1.0663168.94785566-1.65862246 2.1328002-2.01417246.94785568 0 2.01417248.35555 2.488017 1.54032794l21.91947472 58.53029576c.7109334 2.01433908 2.48818361 3.31891104 4.85790609 3.31891104 2.1326336 0 4.02834493-1.30457196 4.73927834-3.31891104L69.19424047 4.50232756c.47384453-1.18477794 1.54016133-1.54032794 2.488017-1.54032794 1.18494454.35555 1.89587794.94785566 2.1328002 2.01417246l8.29344553 60.18908484c.11829452.71143324.71143324 1.18627744 1.42286648 1.18627744.70976712 0 1.42120036-.59313872 1.42120036-1.30457196v-.23658904l-8.4124065-60.18958467C76.30324129 1.89568282 73.81505769.23689374 71.32687408.23689374c-2.36972248 0-4.02851155 1.42186681-4.73927834 3.31757815L44.668121 62.08460104c-.3553834.94802228-1.18477793 1.42286648-2.1326336 1.42286648-1.06648341 0-1.89587795-.4748442-2.25126135-1.42286648L18.36475134 3.55447189C17.65398455 1.65876055 15.99519548.23689374 13.625473.23689374c-2.4881836 0-4.97636721 1.65878908-5.21328948 4.38389495L-.00005636 64.81037336v.23658904c0 .71143324.7109334 1.30457196 1.4217002 1.30457196.7109334 0 1.30340568-.4748442 1.4218668-1.18627744L11.1372894 4.97617208zM135.18942028 1.77722168c-1.77775004-1.18477793-3.91038364-1.7772502-6.04301724-1.7772502-2.01433908 0-3.91038364.47384453-5.68646756 1.54032794l-.23658904.23692226c-1.89604456 1.18477794-3.20061652 2.843567-4.02867816 4.85773948L95.14255996 64.21723464c-.11829452.23825516-.11829452.35654968-.11829452.59313872 0 .82972776.70976712 1.42120036 1.42120036 1.42120036.5914726 0 1.0663168-.23658904 1.30290584-.82806164l7.22762856-17.29932396h48.4591002l7.22762856 17.29932396c.11996064.5914726.59313872.82806164 1.18461132.82806164.82972776 0 1.42286648-.70976712 1.42286648-1.53949488v-.4748442L139.21809844 6.63496116c-.82972776-1.89571134-2.1326336-3.55450041-3.79208912-4.73927834h-.11829452l-.11829452-.11846114zm-9.0053786 1.65878908c.94802228-.35555001 2.01433908-.59247228 2.96236136-.59247228 1.65945552 0 3.1989504.47401114 4.50185624 1.30340568l.11996064.11846113c1.30290584.82939454 2.25092812 2.1326336 2.7241062 3.43603928l15.75816296 37.55867671h-46.08987756l15.63986844-37.55867671c.59313872-1.42186681 1.65945552-2.60664474 2.96236136-3.55450041l1.42120036-.94802228v.23708888zM186.25599828 64.69207884c1.77775004 1.0663168 3.67212848 1.53949488 5.68646756 1.53949488 2.1326336 0 4.2652672-.5914726 6.04301724-1.77608392l.23658904-.11996064c1.65945552-1.18461132 2.96236136-2.84240072 3.79208912-4.73844528l24.05210832-57.58293993v-.47384453c0-.82939454-.59313872-1.54032794-1.42120036-1.54032794-.59313872 0-1.06798292.3553834-1.18627744.82939454l-24.17040284 57.70140106c-.47317808 1.30290584-1.42120036 2.6074778-2.7241062 3.43553944l-.11829452.11829452c-1.30457196.82972776-2.84406684 1.30457196-4.50352236 1.30457196-.94802228 0-2.01433908-.23825516-2.96236136-.59313872v.23658904l-1.42120036-.94802228c-1.30290584-.82806164-2.36922264-2.1326336-2.96236136-3.55383396L160.54443444.82936602c-.23658904-.47401114-.70976712-.82939454-1.30290584-.82939454-.71143324 0-1.42120036.59247227-1.42120036 1.4217002 0 .23708887 0 .47401114.11829452.59247227l24.05210832 57.58293993c.82972776 1.89604456 2.1326336 3.6737946 4.02867816 4.85840592l.23658904.23658904zM259.8335236-.00002852c-15.28331876 0-27.84253132 12.79613482-27.84253132 27.843531V38.3890424c0 15.16502424 12.67750708 27.84253132 27.84253132 27.84253132h23.34067508c.94802228 0 1.65945552-.70976712 1.65945552-1.53949488 0-.94802228-.71143324-1.65945552-1.65945552-1.65945552H259.8335236c-13.50723484 0-24.64358092-11.13634608-24.64358092-24.64358092v-3.6737946h43.83894944c.82806164 0 1.53949488-.71143324 1.53949488-1.6577894 0-.82972776-.71143324-1.541161-1.53949488-1.541161h-43.83894944v-3.67279493c0-13.50706823 11.13634608-24.64458059 24.64358092-24.64458059h23.34067508c.94802228 0 1.65945552-.7107668 1.65945552-1.65862246 0-.82939454-.71143324-1.54032794-1.65945552-1.54032794H259.8335236zM300.11863908 3.90985528c-2.48918328 2.48818361-3.91038364 5.92422289-3.91038364 9.4787233v51.30350026c0 .82972776.71143324 1.53949488 1.541161 1.53949488.94635616 0 1.6577894-.70976712 1.6577894-1.53949488V42.6543096h28.31737552l23.10408604 23.10408604c.23825516.35488356.71143324.47317808 1.0663168.47317808.94802228 0 1.65945552-.70976712 1.65945552-1.53949488 0-.4748442-.23658904-.82972776-.4748442-1.18461132l-20.61490276-20.61656888 2.96236136-.35488356c10.663168-1.30457196 18.7188582-10.663168 18.7188582-21.20904115 0-11.6113569-9.71514572-21.32700245-21.326336-21.32700245h-23.22238056c-3.43553944 0-6.63448984 1.30323906-9.12367312 3.5545004l-.35488356.3553834zm31.16144236 35.54550392h-31.8728756V13.38857858c0-2.72510588 1.0663168-5.33175062 2.96236136-7.22746195l1.0663168-1.0663168v.11846113c1.77775004-1.30340568 3.91038364-2.01433908 6.16131176-2.01433908h23.22238056c9.5968512 0 18.1273856 8.0570231 18.1273856 18.12805205s-8.5305344 18.12838527-18.1273856 18.12838527h-1.53949488zM369.31260268 1.54029942c0-.82939454-.71143324-1.54032794-1.65945552-1.54032794-.82972776 0-1.53949488.7109334-1.53949488 1.54032794v63.15177942c0 .82972776.70976712 1.53949488 1.53949488 1.53949488.94802228 0 1.65945552-.70976712 1.65945552-1.53949488V1.54029942zM413.50643568-.00002852c-15.16502424 0-27.84253132 12.6776737-27.84253132 27.843531V38.3890424c0 15.16502424 12.55921256 27.84253132 27.84253132 27.84253132h23.3423412c.94635616 0 1.6577894-.70976712 1.6577894-1.53949488 0-.94802228-.71143324-1.65945552-1.6577894-1.65945552h-23.3423412c-13.50723484 0-24.64358092-11.13634608-24.64358092-24.64358092V27.84350247c0-13.50706823 11.13634608-24.64458059 24.64358092-24.64458059h23.3423412c.94635616 0 1.6577894-.7107668 1.6577894-1.65862246 0-.82939454-.71143324-1.54032794-1.6577894-1.54032794h-23.3423412zM472.86695904 31.5162974h-19.78684112V1.54029942c0-.82939454-.71143324-1.54032794-1.65945552-1.54032794-.82806164 0-1.53949488.7109334-1.53949488 1.54032794v63.15177942c0 .82972776.71143324 1.53949488 1.53949488 1.53949488.94802228 0 1.65945552-.70976712 1.65945552-1.53949488V34.7152478h19.07540788c13.38894032 0 24.64524704 11.25630672 24.64524704 24.64524704v5.331584c0 .82972776.71143324 1.53949488 1.65945552 1.53949488.82806164 0 1.53949488-.70976712 1.53949488-1.53949488v-5.331584c-.11829452-10.30828444-5.92472272-20.37997984-15.75816296-25.11842512l-2.72577232-1.30290584 2.6074778-1.30457196C493.48352792 27.01410794 499.28829 17.06154012 499.28829 6.87205003V1.54029942c0-.82939454-.70976712-1.54032794-1.53949488-1.54032794-.94802228 0-1.65945552.7109334-1.65945552 1.54032794v5.33175061c0 12.79613483-10.18998992 23.93448025-23.22238056 24.64424737z"/>
  </g>
</svg>
