<?xml version="1.0" encoding="UTF-8" standalone="no"?><!DOCTYPE svg PUBLIC "-//W3C//DTD SVG 1.1//EN" "http://www.w3.org/Graphics/SVG/1.1/DTD/svg11.dtd"><svg width="610px" height="100px" version="1.1" xmlns="http://www.w3.org/2000/svg" xmlns:xlink="http://www.w3.org/1999/xlink" xml:space="preserve" xmlns:serif="http://www.serif.com/" style="fill-rule:evenodd;clip-rule:evenodd;stroke-linejoin:round;stroke-miterlimit:1.41421;"><g><g><g><path d="M7.121,66.632c10.29,4.94 20.687,10.132 23.905,11.71c2.625,1.288 4.844,3.106 9.442,-0.967c3.371,-2.987 14.006,-12.599 19.438,-17.514l-58.607,0c-3.324,0 0.133,4.04 5.822,6.771" style="fill:#a2133d;fill-rule:nonzero;"/><path d="M25.107,95.951c8.578,-2.679 17.304,-5.245 19.996,-6.059c2.197,-0.664 4.263,-0.717 6.294,-6.285c1.49,-4.083 6.139,-17.097 8.51,-23.746c-9.65,8.239 -38.132,32.563 -40.795,34.838c-2.314,1.975 1.252,2.733 5.995,1.252" style="fill:#e01d5a;fill-rule:nonzero;"/></g><g><path d="M92.879,33.368c-10.291,-4.939 -20.688,-10.133 -23.905,-11.71c-2.625,-1.287 -4.845,-3.106 -9.441,0.966c-3.372,2.988 -14.008,12.6 -19.441,17.515l58.609,0c3.323,0 -0.133,-4.041 -5.822,-6.771" style="fill:#0b8453;fill-rule:nonzero;"/><path d="M74.893,4.049c-8.579,2.679 -17.304,5.244 -19.997,6.059c-2.196,0.664 -4.262,0.717 -6.295,6.285c-1.49,4.084 -6.136,17.097 -8.509,23.746c9.65,-8.24 38.132,-32.563 40.795,-34.838c2.314,-1.975 -1.251,-2.733 -5.994,-1.252" style="fill:#2bb77c;fill-rule:nonzero;"/></g><g><path d="M66.632,92.879c4.939,-10.291 10.132,-20.687 11.71,-23.906c1.287,-2.625 3.106,-4.844 -0.967,-9.441c-2.987,-3.371 -12.6,-14.006 -17.515,-19.439l0,58.608c0,3.324 4.042,-0.132 6.772,-5.822" style="fill:#d06921;fill-rule:nonzero;"/><path d="M95.95,74.894c-2.678,-8.58 -5.244,-17.306 -6.057,-19.998c-0.665,-2.196 -0.719,-4.263 -6.288,-6.294c-4.082,-1.491 -17.095,-6.137 -23.745,-8.51c8.241,9.65 32.563,38.132 34.839,40.796c1.975,2.313 2.733,-1.252 1.251,-5.994" style="fill:#ebb12a;fill-rule:nonzero;"/></g><g><path d="M33.367,7.122c-4.939,10.29 -10.132,20.686 -11.709,23.905c-1.289,2.625 -3.107,4.844 0.966,9.441c2.987,3.371 12.6,14.006 17.515,19.44l0,-58.609c0,-3.324 -4.042,0.132 -6.772,5.823" style="fill:#1494cf;fill-rule:nonzero;"/><path d="M4.049,25.106c2.678,8.58 5.243,17.306 6.058,19.998c0.665,2.196 0.718,4.263 6.286,6.293c4.083,1.492 17.095,6.137 23.746,8.51c-8.241,-9.649 -32.563,-38.131 -34.838,-40.794c-1.976,-2.315 -2.733,1.251 -1.252,5.993" style="fill:#33c5ef;fill-rule:nonzero;"/></g></g><g id="Layer1"><path d="M187.776,13.761c-2.1,0 -3.466,1.05 -3.991,3.151l-13.551,44.012c-1.05,3.467 -1.785,6.618 -2.731,9.979l-1.89,0c-0.946,-3.361 -1.681,-6.512 -2.732,-9.769l-13.55,-44.222c-0.63,-2.101 -1.786,-3.151 -3.886,-3.151l-10.505,0c-2.416,0 -3.781,1.365 -3.886,3.886l-2.836,68.592l9.243,0l2.521,-64.81l2.101,0l16.177,53.466c0.63,1.996 1.995,3.151 4.201,3.151l8.299,0c2.1,0 3.466,-1.155 3.991,-3.151l16.177,-53.466l2.206,0l2.626,64.81l9.243,0l-3.046,-68.592c0,-2.521 -1.365,-3.886 -3.781,-3.886l-10.4,0Z" style="fill:#fff;fill-rule:nonzero;"/><path d="M260.255,63.55l7.143,22.689l9.559,0l-23.319,-69.957c-0.42,-1.576 -1.786,-2.521 -3.467,-2.521l-9.663,0c-1.681,0 -3.047,0.945 -3.467,2.521l-23.319,69.957l9.559,0l7.143,-22.689l29.831,0Zm-2.521,-7.983l-24.789,0l9.138,-28.781c0.63,-1.891 1.261,-3.992 1.786,-5.883l2.941,0c0.525,1.891 1.156,3.992 1.786,5.883l9.138,28.781Z" style="fill:#fff;fill-rule:nonzero;"/><path d="M336.621,13.761l-9.559,0l-17.017,57.352c-0.84,2.626 -1.575,5.358 -2.206,7.984l-2.836,0c-0.63,-2.626 -1.365,-5.252 -2.1,-7.879l-17.122,-57.457l-9.559,0l21.954,69.852c0.42,1.471 1.785,2.626 3.571,2.626l9.349,0c1.68,0 3.046,-1.155 3.571,-2.626l21.954,-69.852Z" style="fill:#fff;fill-rule:nonzero;"/><path d="M391.558,78.571l-29.097,0c-4.306,0 -6.302,-2.1 -6.302,-7.037l0,-19.853l31.302,0l0,-7.458l-31.302,0l0,-15.757c0,-4.832 1.996,-6.932 6.302,-6.932l29.097,0l0.42,-7.248c-9.664,-0.631 -20.693,-0.631 -31.092,-0.631c-8.509,0 -13.866,4.832 -13.971,12.606l0,47.478c0.105,7.774 5.462,12.606 13.971,12.606c10.399,0 21.428,0 31.092,-0.631l-0.42,-7.143Z" style="fill:#fff;fill-rule:nonzero;"/><path d="M457.419,86.239l-7.038,-22.899c-1.575,-6.092 -5.357,-9.453 -8.928,-10.399l0,-0.525c9.559,-1.261 13.34,-6.933 13.34,-18.698c0,-16.281 -6.617,-20.903 -23.424,-20.903c-11.66,0 -17.122,0.105 -25,0.946l0,72.478l9.139,0l0,-30.357c3.991,0 9.243,0.105 15.966,0.105c4.832,0 7.773,2.101 9.664,7.563l6.407,22.689l9.874,0Zm-41.911,-38.235l0,-27.101c4.096,0 9.453,-0.105 15.651,-0.105c10.714,0 14.286,2.836 14.286,13.446c0,10.714 -3.572,13.655 -14.286,13.76l-15.651,0Z" style="fill:#fff;fill-rule:nonzero;"/><rect x="471.285" y="13.761" width="9.244" height="72.479" style="fill:#fff;fill-rule:nonzero;"/><path d="M524.541,12.5c-20.903,0 -28.466,9.874 -28.466,37.5c0,27.626 7.563,37.5 28.466,37.5c9.454,0 15.126,-0.735 21.219,-2.416l-0.946,-6.933c-5.882,0.841 -11.344,1.156 -20.273,1.156c-14.181,0 -18.697,-7.248 -18.697,-29.307c0,-22.059 4.516,-29.307 18.697,-29.307c8.404,0 12.5,0.315 18.803,0.946l0.945,-7.038c-5.987,-1.471 -10.609,-2.101 -19.748,-2.101Z" style="fill:#fff;fill-rule:nonzero;"/><path d="M576.117,52.206l23.109,34.033l10.399,0l-22.059,-32.563c-1.155,-1.68 -2.731,-3.361 -4.516,-5.042l0,-0.21c1.68,-1.68 2.731,-2.731 3.991,-4.621l21.114,-30.042l-10.084,0l-22.059,30.987l-8.824,0c0.42,-2.731 0.63,-5.357 0.63,-8.298l0,-22.689l-9.138,0l0,72.478l9.138,0l0,-26.365c0,-2.521 -0.21,-5.042 -0.63,-7.668l8.929,0Z" style="fill:#fff;fill-rule:nonzero;"/></g></g></svg>