<?xml version="1.0" encoding="UTF-8" standalone="no"?><!DOCTYPE svg PUBLIC "-//W3C//DTD SVG 1.1//EN" "http://www.w3.org/Graphics/SVG/1.1/DTD/svg11.dtd"><svg viewBox="0 0 469 65" version="1.1" xmlns="http://www.w3.org/2000/svg" xmlns:xlink="http://www.w3.org/1999/xlink" xml:space="preserve" xmlns:serif="http://www.serif.com/" style="fill-rule:evenodd;clip-rule:evenodd;stroke-linejoin:round;stroke-miterlimit:1.41421;"><g id="Layer2"><g><path d="M0,64.598l9.404,0l0,-28.36l-9.404,-0.037l0,28.397Zm53.853,-63l-20.777,47.678l-21.828,-47.678l-11.248,0l30.473,63l5.29,0l21.152,-47.292l0,47.292l9.321,0l0,-63l-12.383,0l0,0Z" style="fill:#fff;fill-rule:nonzero;"/><path d="M112.258,1.598l-5.749,0l-25.869,63l9.456,0l19.09,-46.48l0.177,-0.493l0.01,0.034l0.011,-0.018l0.01,0.018l0.011,-0.034l0.177,0.493l19.089,46.48l9.467,0l-25.88,-63l0,0Z" style="fill:#ff1919;fill-rule:nonzero;"/><path d="M176.844,64.598l5.292,0l24.276,-63l-9.995,0l-16.885,43.241l-16.968,-43.241l-9.996,0l24.276,63l0,0Z" style="fill:#ff1919;fill-rule:nonzero;"/><path d="M256.775,27.973l-35.951,0l0,7.812l35.951,0l0,-7.812Zm-35.951,36.625l41.918,0l0,-7.728l-41.918,0l0,7.728Zm0,-63l0,7.727l41.918,0l0,-7.727l-41.918,0Z" style="fill:#fff;fill-rule:nonzero;"/><path d="M301.488,38.557l-24.36,0l0,26.041l9.325,0l0,-18.312l14.7,0l12.347,18.312l10.333,0l-13.524,-19.992c7.98,-3.361 13.524,-11.089 13.524,-20.664c0,-12.685 -9.912,-22.261 -22.26,-22.344l-15.12,0l-9.325,0l0,7.727l24.36,0c7.142,0 13.021,6.133 13.021,14.617c0,8.568 -5.879,14.615 -13.021,14.615l0,0Z" style="fill:#fff;fill-rule:nonzero;"/><rect x="338.256" y="1.598" width="9.321" height="63" style="fill:#fff;fill-rule:nonzero;"/><path d="M393.948,56.869c-13.945,0 -22.683,-12.768 -22.683,-24.612c0,-12.936 9.665,-24.528 22.683,-24.528c3.311,0 6.613,0.644 9.55,1.922l3.686,-7.099c-4.051,-1.7 -8.529,-2.552 -13.236,-2.552c-17.726,0 -32.004,14.028 -32.004,32.257c0,18.312 14.278,32.341 32.004,32.341c4.53,0 8.841,-0.785 12.757,-2.345l-2.406,-7.615c-3.301,1.532 -7.071,2.231 -10.351,2.231l0,0Z" style="fill:#fff;fill-rule:nonzero;"/><path d="M421.56,30.326l0,10.919l9.154,-7.644l25.12,30.997l13.018,0l-30.993,-36.96l30.993,-26.04l-13.685,0l-33.607,28.728l0,0Z" style="fill:#fff;fill-rule:nonzero;"/></g></g><g id="Layer3"><path d="M53.853,1.598l-17.878,39.572l-5.899,0.106l-18.828,-39.678l-11.248,0l30.473,63l5.29,0l21.152,-47.292l7.321,-15.708l-10.383,0l0,0Z" style="fill:#ff1919;fill-rule:nonzero;"/></g></svg>